/* XPM */
static char *_e9b285e8bb24137f696ae686a844ed5Ree4Z1TiyensPHJZ[] = {
/* columns rows colors chars-per-pixel */
"64 64 154 2 ",
"   c #050304",
".  c #0F0206",
"X  c #0F020E",
"o  c gray4",
"O  c #14030B",
"+  c #1A050A",
"@  c #180317",
"#  c #1F041D",
"$  c #111111",
"%  c #1D1D1D",
"&  c #2C0507",
"*  c #22060D",
"=  c #24051F",
"-  c #330813",
";  c #35081F",
":  c #1E0A22",
">  c #1C182C",
",  c #1B1D30",
"<  c #260620",
"1  c #280721",
"2  c #230921",
"3  c #370A25",
"4  c #3D0925",
"5  c #32042F",
"6  c #201E20",
"7  c #2E172C",
"8  c #390435",
"9  c #321D31",
"0  c #372235",
"q  c #3A3A3A",
"w  c #41081D",
"e  c #4B0A1E",
"r  c #570B1F",
"t  c #400925",
"y  c #410E2B",
"u  c #500E22",
"i  c #4A112E",
"p  c #5E1124",
"a  c #53112D",
"s  c #4D1230",
"d  c #571433",
"f  c #641226",
"g  c #73162D",
"h  c #7C152F",
"j  c #6C1A3B",
"k  c #7D1434",
"l  c #751930",
"z  c #7E1932",
"x  c #580C55",
"c  c #7B1F42",
"v  c #5C3B48",
"b  c #6B0364",
"n  c #710269",
"m  c #781176",
"M  c #10555C",
"N  c #0F5D62",
"B  c #0C6C6E",
"V  c #0B7676",
"C  c #0C7B7B",
"Z  c #2F6C74",
"A  c #565656",
"S  c #5D565C",
"D  c #645C63",
"F  c #526574",
"G  c #636363",
"H  c #6E6E6E",
"J  c #A6141E",
"K  c #891021",
"L  c #811534",
"P  c #8A1633",
"I  c #881D3F",
"U  c #931837",
"Y  c #96183B",
"T  c #9C1A3A",
"R  c #A91725",
"E  c #A91B3E",
"W  c #C31722",
"Q  c #C31F3C",
"!  c #E61B24",
"~  c #ED1C24",
"^  c #DA2D33",
"/  c #C7353C",
"(  c #D73036",
")  c #F02D25",
"_  c #D84939",
"`  c #F65B26",
"'  c #F95B26",
"]  c #FB6926",
"[  c #FF7E27",
"{  c #EA7C34",
"}  c #AD1C40",
"|  c #B51D43",
" . c #B91F46",
".. c #AC1751",
"X. c #8D254B",
"o. c #A52448",
"O. c #AA254A",
"+. c #BA2047",
"@. c #B62549",
"#. c #BE234A",
"$. c #B9284C",
"%. c #A32C54",
"&. c #A92E56",
"*. c #B5315C",
"=. c #C5284F",
"-. c #C72850",
";. c #CC2B55",
":. c #D12E57",
">. c #D5315C",
",. c #C33561",
"<. c #C93763",
"1. c #DC3663",
"2. c #DC3864",
"3. c #DE3B6A",
"4. c #E13966",
"5. c #E43D6B",
"6. c #E93F6E",
"7. c #AB5C5B",
"8. c #8A5C77",
"9. c #885C7B",
"0. c #A55D60",
"q. c #AE5174",
"w. c #9E6365",
"e. c #897676",
"r. c #80737F",
"t. c #C64C74",
"y. c #DB4874",
"u. c #EB406F",
"i. c #ED4272",
"p. c #F04374",
"a. c #8D0284",
"s. c #8C0C8C",
"d. c #95028B",
"f. c #98028E",
"g. c #980D8D",
"h. c #9C0392",
"j. c #A60C8B",
"k. c #A3069A",
"l. c #992B80",
"z. c #A717A4",
"x. c #E33780",
"c. c #EF3C8D",
"v. c #C011B9",
"b. c #D022BA",
"n. c #C51BC2",
"m. c #DC1BD8",
"M. c #DD21C5",
"N. c #EC26D6",
"B. c #E61FE2",
"V. c #EB21E8",
"C. c #0C8383",
"Z. c #0E9393",
"A. c #0F9B9B",
"S. c #10A6A6",
/* pixels */
"f.a.a.a.a.a.a.a.a.a.a.a.a.a.a.a.a.a.a.a.a.a.a.a.a.a.a.a.a.a.a.a.f.a.a.a.a.a.a.a.a.a.a.a.a.a.a.a.a.a.a.a.a.a.a.a.a.a.a.a.a.a.a.a.",
"a.# # # # # # # # # # # # # # # # # # # # # # # # # # # # # # # a.# # # # # # # # # # # # # # # # # # # # # # # # # # # # # # # ",
"a.# # # # # # # # # # # # # # # # # # # # # # # # # # # # # # # a.# # # # # # # # # # # # # # # # # # # # # # # # # # # # # # # ",
"a.# # # # # # # # # # # # # # # # # # # # # # # # # # # # # # # a.# # # # # # # # # # # # # # # # # # # # # # # # # # # # # # # ",
"a.# # # # # # # # # # # # # # # # # # # # # # # # # # # # # # # a.# # # # # # # # # # # # # # # # # # # = # # # # # # # # # # # ",
"a.# # # # # # # # # # # # # # # # # # # # # # # # # # # # # # # a.# # # # # # # # # # # # # # # # # # # # # # # # # # # # # # # ",
"a.# # # # # # # # # # # # # # # # # # # # # # # # # # # # # # # a.# # # # # # # # # # # # # # # # # # # # # # # # # # # # # # # ",
"a.# # # # # # # # # # # # # # # # # # # # # # # # # # # # # # # a.# # # # # # # # # # # # # # # # # # # # # # # # # # # # # # # ",
"a.# # # # # # # # # # # # # # # # # # # # # # # # # # # # # # # a.# # # # # # # # # # # # # # # # # # # # # # # # # # # # # # # ",
"a.# # # # # # # # # # # # # # # # # # # # # # # # # # # # # # # a.# # # # # # # # # # # # # # # # # # # # # # # # # # # # # # # ",
"a.# # # # # # # # # # # # # # # # # # # # # # # # # # # # # # # a.# # # # # # # # # # # # # # # # # # # # # # # # # # # # # # # ",
"a.# # # # # # # # # # # # # # # # # # # # # # # # # # # # # # # a.# # # # # # # # # # # # # # # # # # # # # # # # # # # # # # # ",
"a.# # # # # # # # # # # # # # # # # # # # # # # # # # # # # # # a.# # # # # # # # # # # # # # # # # # # # # # # # # # # # # # # ",
"a.# # # # # # # # # # # # # # # # # # # # # # # # # # # # # # # a.# # # # # # # # # # # # # # # # # # # # # # # # # # # # # # # ",
"a.# # # # # # # # # # # # # # # # # # # # # # # # # # # # # # # a.# # # # # # # # # # # # # # # # # # # # # # # # # # # # # # # ",
"a.# # # # # # # # # # # # # # # # # # # # # # # # # # # # # # # a.# # # # # # # # # # # # # # # # # # # # # # # # # # # # # # # ",
"a.# # # # # # # # # # # # # # # # # # # # # # # # # # # # # # # a.# # # # # # # # # # # # # # # # # # # # # # # # # # # # # # # ",
"a.# # # # # # # # # # # # # # # # # # # # # # # # # # # # # # # a.# # # # # # # # # # # # # # # # # # # # # # # # # # # # # # # ",
"a.# # # # # # # # # # # # # # # # # # # # # # # # # # # # # # # a.# # # # # # # # # # # # # # # # # # # # # # # # # # # # # # # ",
"a.# # # # # # # # # # # # # # # # # # # # # # # # # # # # # # # a.# # # # # # # # # # # # # # # # # # # # # # # # # # # # # # # ",
"a.# # # # # # # # # # # # # # # # # # = # # # # # # # # # # # # a.# # # # # # # # # # # # # # # # # # # # # # # # # # # # # # # ",
"a.# # # # # # # # # # # # # # : # # # = = = = = = 2 < < < < < = a.< < < : : # # # # # # # # # # # # # # # # # # # # # # # # # # ",
"a.# # # # # # # # # i s s s s s s i y I O.O.O.O.O.5.,.,.,.,.,.,.c.c.c.x.d 8 # # # # # # # # # # # # # # # # # # # # # # # # # # ",
"a.# # # # # # # = 3 3.5.,.,.,.,.<.1.$.a # # # # # %.i # # # # # n.V.V.v.h.f.5 # # # # # # # # # # # # # # # # # # # # # # # # # ",
"a.# # # # # # # # k #.O.i i i i d $.g 4 # # # # # 4 ,.: # # # # x V.V.B.k.h.b # # # # # # # # # # # # # # # # # # # # # # # # # ",
"a.# # # # # # # # Y | | O.O.o.O.o.g p 3 # # # # # # s &.# # # # 2 m B.B.m.h.d.b 5 # # # # # # # # # # # # # # # # # # # # # # # ",
"a.# # # # # # # # Y | +.:.:.:.:.-.p p ; : = # 2 # 2 # y %.# # # # : < z.B.B.f.f.f.8 # = # : = # # # # # # # # # # # # # # # # # ",
"a.# # # # # # # # Y | +.#.#.#.#.+.l l a y y 4 4 4 4 y y c i.j 4 4 4 3 4 b.N.M.j.j.j.y 8 4 y 1 # # # # # # # # # # # # # # # # # ",
"a.# # # # # # # # Y | -.;.2.2.2.1.1.1.1.1.1.1.1.3.1.1.1.1.;.@.=.-.-.-.-.4.p.p.p.p.p.p.p.p.p.X.c d # # # # # # # # # # # # # # # ",
"a.# # # # # # # # Y | | | | | | | | | | | | | | | | | | #.:.z } | | | | ;.p.p.p.p.p.p.p.p.i.i.p.5.: # # # 2 # # # # # # # # # # ",
"a.# # # # # # # # Y } | | | | | | | | | | | | | | | | | =.:.z } | | | |  .-.;.1.6.p.p.p.p.p.p.p.6.*.*.*.3 : # # # # # # # # # # ",
"a.# # # # # # # # Y | | | | | | | | | | | | | | | | | | #.:.z E | | | | | |  .1.6.p.p.p.p.p.p.p.p.p.p.6.4 # # # # # # # # # # # ",
"f.a.a.a.a.a.a.a.a...+.P   o o o . E | | | | | | | | | | T f U . o o o   P | #.>.6.p.p.y.y.y.u.i.i.p.p.p.i.s.s.a.a.a.a.a.a.a.a.a.",
"a.# # # # # # # # L T   q H H H % - | | | | | | | | | | +.+.- 6 H H H q   | |  .=.4.p.V C.C.9.i.i.p.p.p.Z C.V , : # # # # # # # ",
"a.# # # # # # # # u p $ H H H H G - | | | | | | | | | | E | - G H H H H $ | | | | -.p.C S.S.C y.p.p.p.p.Z S.A.N > # # # # # # # ",
"a.# # # # # # # # z U $ H H H H G * h h h h h h h h h h h h * G H H H H $ | | | | #.1.8.Z.S.C.F p.p.p.p.q.C.A.B M > # # # # # # ",
"a.# # # # # # # # Y | $ H H H H G + p p p p p p f p p p p p + G H H H H $ | | | | | :.i.8.C Z.V p.p.p.p.p.t.C.Z.C , # # # # # # ",
"a.# # # # # # # # # | $ H H H H G - | | | f | | | | | | | | - S H H H H $ | | | | | | >.i.i.p.6.i.i.i.i.p.i.i.p.i.i # # # # # # ",
"a.# # # # # # # # # Q & 6 S S S   e | | | g | | | | | | | | r   A A A % * | | | | | | | | | | | @.| | | | | | | | 4 # # # # # # ",
"a.# # # # # # # # # # J X # # # O Y Y Y Y Y Y Y Y Y Y Y Y Y Y O #       L Y Y Y Y Y Y Y Y Y Y Y Y Y Y Y Y Y Y Y Y 4 # # # # # # ",
"a.# # # # # # # # e e w @ = # # @ t 4 4 4 4 4 4 3 4 4 4 4 4 4 @ n @ @ @ 3 4 4 4 4 4 4 4 4 4 4 4 3 4 4 4 4 4 4 4 4 = # # # # # # ",
"a.# # # # # # # # # # # # # # # # = # # = # # # # # = # # # # # a.# # # # # = # # # # # # # = # = # = # # # # # # # # # # # # # ",
"a.# # # # # # # # # # # # # # # # # # # # # # # # # # # # # # # a.# # # # # # # # # # # # # # # # # # # # # # # # # # # # # # # ",
"a.# # # # # # # # # # # # # # # # # # # # # # # # # # # # # # # a.# # # # # # # # # # # # # # # # # # # # # # # # # # # # # # # ",
"a.# # # # # # # # # # # # # # # # # # # # # # # # # # # # # # # a.# # # # # # # # # # # # # # # # # # # # # # # # # # # # # # # ",
"a.# # # # # # # # # # # # # # # # # # # # # # # # # # # # # # # a.# # # # # # # # # # # # # # # # # # # # # # # # # # # # # # # ",
"a.# # # # # # # # # # # # # # # # # # # # # # # # # # # # # # # a.# # # # # # # # # # # # # # # # # # # # # # # # # # # # # # # ",
"a.# # # # # # # # # # # # # # # # # # # # # # # # # # # # # # # a.# # # # # # # # # # # # # # # # # # # # # # # # # # # # # # # ",
"a.# # # # # # # # # # # # # # # # # # # # = # # # # # # # # # # a.# # # # # # # # # # # # # # # # # # # # # # # # # # # # # # # ",
"a.# # # # # # # # # # # # # # # # # # # # # # # # # # # # # # # a.# # # # # # # # # # # # # # # # # # # # # # # # # # # # # # # ",
"a.# # # # # # # # # # # # # # # # # # # # # # # # # # # # # # # a.# # # # # # # # # # # # # # # # # # # # # # # # # # # # # # # ",
"a.# # # # # # # # # # # # # # # # # # # # # # # # # # # # # # # a.# # # # # # # # # # # # # # # # # # # # # # # # # # # # # # # ",
"a.# # # # # # # # # # # # # # # # # # # # # # # # # # # # # # # a.# # # # # # # # # # # # # # # # # # # # # # # # # # # # # # # ",
"a.# # # # # # # # # # # # # # # # # # # # # # # # # # # # # # # a.# # # # # # # # # # # # # # # # # # # # # # # # # # # # # # # ",
"a.# # # # # # # # # # # # # # # # # # # # # # # # # # # # # # # a.# # # # # # # # # # # # # # # # # # # # # # # # # # # # # # # ",
"a.# # # # # # # # # # # # # # # # # # # # # # # # # # # # # # # a.# # # # # # # # # # # # # # # # # # # # # # # # # # # # # # # ",
"a.# # # # # # # # # # # # # # # # # # # # # # # # # # # # # # # a.# # # # # # # # # # # # # # # # # # # # # # # # # # # # # # # ",
"a.# # # # # # # # # # # # # # # # # # # # # # # # # # # # # # # a.# # # # # # # # # # # # # # # # # # # # # # # # # # # # # # # ",
"a.# # # # # # # # # # # # # # # # # # # # # # # # # # # # # # # a.# # # # # # # # # # # # # # # # # # # # # # # # # # # # # # # ",
"a.# # # # # # # # # # # # # # # # # # # # # # # # # # # # # # # a.# # # # # # # # # # # # # # # # # # # # # # # # # # # # # # # ",
"a.# # # # # # # # # # # # # # # # # # # # # # # # # # # # # # # a.# # # # # # # # # # # # # # # # # # # # # # # # # # # # # # # ",
"a.# # # # # # # # # # # # # # # # # # # # # # # # # # # # # # # a.# # # # # # # # # # # # # # # # # # # # # # # # # # # # # # # ",
"a.# # # # # # # # # # # # # # # # # # # # # # # # # # # # # # # a.# # # # # # # # # # # # # # # # # # # # # # # # # # # # # # # ",
"a.# # # # # # # # # # # # # # # # # # # # # # # # # # # # # # # a.# # # # # # # # # # # # # # # # # # # # # # # # # # # # # # # "
};
