/* XPM */
static char *result[] = {
/* columns rows colors chars-per-pixel */
"64 64 251 2 ",
"   c #000202",
".  c #060106",
"X  c #040404",
"o  c gray2",
"O  c #0F020E",
"+  c #010A0A",
"@  c #07090E",
"#  c gray4",
"$  c #180317",
"%  c #1B0319",
"&  c #1D001B",
"*  c #190519",
"=  c #1F041D",
"-  c #1F051E",
";  c #021515",
":  c #021717",
">  c #021A1A",
",  c #111111",
"<  c gray11",
"1  c #1E1E1E",
"2  c #2C0507",
"3  c #21041F",
"4  c #1F0720",
"5  c #1E0921",
"6  c #1F0921",
"7  c #1F0A22",
"8  c #1F0D25",
"9  c #1B172B",
"0  c #1C162B",
"q  c #171E2F",
"w  c #1B1B2E",
"e  c #1C182C",
"r  c #1F1A30",
"t  c #1B1C30",
"y  c #1D1D32",
"u  c #230521",
"i  c #250523",
"p  c #220820",
"a  c #230921",
"s  c #2B0822",
"d  c #32042F",
"f  c #3D0D29",
"g  c #281026",
"h  c #201E20",
"j  c #2E172C",
"k  c #390435",
"l  c #321D31",
"z  c #032121",
"x  c #172435",
"c  c #1E2338",
"v  c #1F2338",
"b  c #1C273B",
"n  c #1E273C",
"m  c #053333",
"M  c #22233B",
"N  c #372235",
"B  c #3A3A3A",
"V  c #41081D",
"C  c #49091E",
"Z  c #570B1F",
"A  c #49112E",
"S  c #4D1230",
"D  c #4E1230",
"F  c #391C4B",
"G  c #1E2C40",
"H  c #1E2D40",
"J  c #1E2E41",
"K  c #1E2F42",
"L  c #1E2F43",
"P  c #193646",
"I  c #183947",
"U  c #1D384A",
"Y  c #580C55",
"T  c #5C3B48",
"R  c #6B0364",
"E  c #710269",
"W  c #781176",
"Q  c #0C4046",
"!  c #0E4F54",
"~  c #1E4153",
"^  c #134A53",
"/  c #1E4858",
"(  c #1C4C5B",
")  c #075151",
"_  c #075252",
"`  c #075454",
"'  c #0E5258",
"]  c #0E5459",
"[  c #085959",
"{  c #085D5D",
"}  c #085E5E",
"|  c #0F5B61",
" . c #0F5D62",
".. c #1D5A68",
"X. c #285B78",
"o. c #096262",
"O. c #096363",
"+. c #0A6464",
"@. c #0A6868",
"#. c #0A6969",
"$. c #0A6A6A",
"%. c #0A6C6C",
"&. c #16636E",
"*. c #1D6C78",
"=. c #0B7171",
"-. c #0B7474",
";. c #0C7677",
":. c #0C7B7B",
">. c #0C7C7C",
",. c #0C7E7E",
"<. c #0C7F7F",
"1. c #0D7F7F",
"2. c #11777A",
"3. c #565656",
"4. c #5C525B",
"5. c #5D575C",
"6. c #60575F",
"7. c #645C63",
"8. c #426161",
"9. c #467761",
"0. c gray38",
"q. c #646464",
"w. c #6C6C6C",
"e. c gray43",
"r. c #A6141E",
"t. c #891021",
"y. c #A71422",
"u. c #AB1A27",
"i. c #C01722",
"p. c #C31722",
"a. c #E61B24",
"s. c #ED1C24",
"d. c #DA2D33",
"f. c #D73036",
"g. c #F02B24",
"h. c #F02E25",
"j. c #D84939",
"k. c #F65B26",
"l. c #F85826",
"z. c #F95D26",
"x. c #FB6926",
"c. c #FC7027",
"v. c #FE7C27",
"b. c #FF7F27",
"n. c #EA7C34",
"m. c #B7325C",
"M. c #C53662",
"N. c #E13F6E",
"B. c #AB5C5B",
"V. c #8D587D",
"C. c #A55D60",
"Z. c #9E6365",
"A. c #897676",
"S. c #80737F",
"D. c #D2416D",
"F. c #F14475",
"G. c #F14676",
"H. c #F24879",
"J. c #F24979",
"K. c #F44D7C",
"L. c #F54E7D",
"P. c #F5507F",
"I. c #1D7E88",
"U. c #8D0284",
"Y. c #8A0886",
"T. c #910687",
"R. c #930289",
"E. c #96028C",
"W. c #9D078B",
"Q. c #98028E",
"!. c #99028F",
"~. c #970E8D",
"^. c #980C8C",
"/. c #9C0392",
"(. c #A1088C",
"). c #A3069A",
"_. c #992B80",
"`. c #852198",
"'. c #A717A4",
"]. c #C011B9",
"[. c #AE6D8E",
"{. c #CF5881",
"}. c #F95784",
"|. c #FA5A87",
" X c #FC5E8B",
".X c #FF6691",
"XX c #AF37C7",
"oX c #BC36D3",
"OX c #C51BC2",
"+X c #DC1BD8",
"@X c #E01DDC",
"#X c #E61FE2",
"$X c #CB3BE3",
"%X c #EB21E8",
"&X c #0C8080",
"*X c #0C8181",
"=X c #0E8181",
"-X c #0D8585",
";X c #0E8484",
":X c #128085",
">X c #138288",
",X c #1D818A",
"<X c #1D868E",
"1X c #108C8C",
"2X c #0E9191",
"3X c #0E9494",
"4X c #0E9595",
"5X c #0F9B9B",
"6X c #0F9E9E",
"7X c #119494",
"8X c #1D9299",
"9X c #109898",
"0X c #119D9D",
"qX c #1C9DA3",
"wX c #1D9EA3",
"eX c #1D9FA4",
"rX c #10A4A4",
"tX c #10A6A6",
"yX c #1CA1A6",
"uX c #1CA4A9",
"iX c #12A8A8",
"pX c #12AAAA",
"aX c #14AAAA",
"sX c #12ADAD",
"dX c #16ACAC",
"fX c #14B1B1",
"gX c #15B5B5",
"hX c #16B5B5",
"jX c #16B7B7",
"kX c #18B3B3",
"lX c #19B4B5",
"zX c #1CB6B9",
"xX c #1ABABB",
"cX c #19BEBE",
"vX c #7B8FA5",
"bX c #59A2B0",
"nX c #43B1BA",
"mX c #3EA0C3",
"MX c #2DBEC2",
"NX c #30BCC1",
"BX c #49A4D0",
"VX c #1AC2C2",
"CX c #1AC3C3",
"ZX c #1AC4C4",
"AX c #1BC6C6",
"SX c #1CC4C4",
"DX c #1CC8C8",
"FX c #1CC9C9",
"GX c #22C5C7",
"HX c #21C6C7",
"JX c #848BA2",
/* pixels */
"Q.U.U.U.U.U.U.U.U.U.U.U.U.U.U.U.U.U.U.U.U.U.U.U.U.U.U.U.U.U.U.U.Q.U.U.U.U.U.U.U.U.U.U.U.U.U.U.U.U.U.U.U.U.U.U.U.U.U.U.U.U.U.U.U.",
"U.= = = = = = = = = = = = = = = = = = = = = = = = = = = = = = = U.= = = = = = = = = = = = = = = = = = = = = = = = = = = = = = = ",
"U.= = = = = = = = = = = = = = = = = = = = = = = = = = = = = = = U.= = = = = = = = = = = = = = = = = = = = = = = = = = = = = = = ",
"U.= = = = = = = = = = = = = = = = = = = = = = = = = = = = = = = U.= = = = = = = = = = = = = = = = = = = = = = = = = = = = = = = ",
"U.= = = = = = = = = = = = = = = = = = = = = = = = = = = = = = = U.= = = = = = = = = = = = = = = = = = = = = = = = = = = = = = = ",
"U.= = = = = = = = = = = = = = = = = = = = = = = = = = = = = = = U.= = = = = = = = = = = = = = = = = = = = = = = = = = = = = = = ",
"U.= = = = = = = = = = = = = = = = = = = = = = = = = = = = = = = U.= = = = = = = = = = = = = = = = = = = = = = = = = = = = = = = ",
"U.= = = = = = = = = = = = = = = = = = = = = = = = = = = = = = = U.= = = = = = = = = = = = = = = = = = = = = = = = = = = = = = = ",
"U.= = = = = = = = = = = = = = = = = = = = = = = = = = = = = = = U.= = = = = = = = = = = = = = = = = = = = = = = = = = = = = = = ",
"U.= = = = = = = = = = = = = = = = = = = = = = = = = = = = = = = U.= = = = = = = = = = = = = = = = = = = = = = = = = = = = = = = ",
"U.= = = = = = = = = = = = = = = = = = = = = = = = = = = = = = = U.= = = = = = = = = = = = = = = = = = = = = = = = = = = = = = = ",
"U.= = = = = = = = = = = = = = = = = = = = = = = = = = = = = = = U.= = = = = = = = = = = = = = = = = = = = = = = = = = = = = = = ",
"U.= = = = = = = = = = = = = = = = = = = = = = = = = = = = = = = U.= = = = = = = = = = = = = = = = = = = = = = = = = = = = = = = ",
"U.= = = = = = = = = = = = = = = = = = = = = = = = = = = = = = = U.= = = = = = = = = = = = = = = = = = = = = = = = = = = = = = = ",
"U.= = = = = = = = = = = = = = = = = = = = = = = = = = = = = = = U.= = = = = = = = = = = = = = = = = = = = = = = = = = = = = = = ",
"U.= = = = = = = = = = = = = = = = = = = = = = = = = = = = = = = U.= = = = = = = = = = = = = = = = = = = = = = = = = = = = = = = ",
"U.= = = = = = = = = = = = = = = = = = = = = = = = = = = = = = = U.= = = = = = = = = = = = = = = = = = = = = = = = = = = = = = = ",
"U.= = = = = = = = = = = = = = = = = = = = = = = = = = = = = = = U.= = = = = = = = = = = = = = = = = = = = = = = = = = = = = = = ",
"U.= = = = = = = = = = = = = = = = = = = = = = = = = = = = = = = U.= = = = = = = = = = = = = = = = = = = = = = = = = = = = = = = ",
"U.= = = = = = = = = = = = = = = = = = = = = = = = = = = = = = = U.= = = = = = = = = = = = = = = = = = = = = = = = = = = = = = = ",
"U.= = = = = = = = = = = = = = = = = = = = = = = = = = = = = = = U.= = = = = = = = = = = = = = = = = = = = = = = = = = = = = = = ",
"U.= = = = = = = = = = = = = = = = = = 4 6 6 6 6 6 7 7 7 7 7 7 7 Y.7 7 7 - = = = = = = = = = = = = = = = = = = = = = = = = = = = ",
"U.= = = = = = = = = J L L L L L L H b &.>X>X>X>X>XxXeXwXwXwXwXwXBXBXBXmXF k = = = = = = = = = = = = = = = = = = = = = = = = = = ",
"U.= = = = = = = = 0 kXlXyXyXyXyXuXhX3XP = = = = = I.L = = = = = OX%X%X]./.E.d = = = = = = = = = = = = = = = = = = = = = = = = = ",
"U.= = = = = = = = ^ ;X2.G G G G U 9Xo.x = = = = = c qX= = = = = Y %X%X@X).Q.R = = = = = = = = = = = = = = = = = = = = = = = = = ",
"U.= = = = = = = = | -.;.>X>X>X>X:X} ) q = = = = = = J <X= = = = u W %X%X+X!.R.R d = = = = = = = = = = = = = = = = = = = = = = = ",
"U.= = = = = = = = | -.>.tXtXtXtX6X) ) q = = = = = = = n ,X= = = = 3 i '.%X#X!.Q.E.k = = = = = = = = = = = = = = = = = = = = = = ",
"U.= = = = = = = = | -.>.,.=X=X=X1.+.+.I v v v v v v v v ..CX( y y y y y XX$XoX`.`.`.M v v v 8 = = = = = = = = = = = = = = = = = ",
"U.= = = = = = = = | -.4X0XdXdXdXdXdXdXdXdXdXdXdXdXdXdXdXaXtX2X3X4X4X4X4XjXFXFXFXFXFXFXFXFXFX*./ ~ = = = = = = = = = = = = = = = ",
"U.= = = = = = = = | -.-.-.-.-.-.-.-.-.-.-.-.-.-.-.-.-.-.-XtX#.=.-.-.-.-.6XFXFXFXFXFXFXFXFXFXFXFXzX= = = = = = = = = = = = = = = ",
"U.l 7.N = = = = = | -.-.-.-.-.-.-.-.-.-.-.-.-.-.-.-.-.-.-XtX#.=.-.-.-.-.&X1X7XgXZXFXFXFXFXFXFXFXSX8X8X8Xr = = = = = = = = = = = ",
"S.6.g p = = = = = | -.-.-.-.-.-.-.-.-.-.-.-.-.-.-.-.-.-.-XtX#.=.-.-.-.-.-.-.<.sXVXFXFXFXFXFXFXFXFXFXFXFXv = = = = = = = = = = = ",
"d.V.~.T.U.U.U.U.U.X.-.[ X # # # + %.-.-.-.-.-.-.-.-.-.-.#.` O.+ # # # X [ -.,.iXcXDXFXNXNXNXGXFXFXFXFXFXMX(.W.U.U.U.U.U.U.U.U.U.",
"A.f.Z.T a = = = = ] $.o B e.e.e.< z -.-.-.-.-.-.-.-.-.-.-.-.z < e.e.e.B o -.-.:.2XjXFXF.K.K.JXGXFXFXFXFX{.K.D.D s = = = = = = = ",
"A.s.s.C.j = = = = Q ) , e.e.e.e.q.z -.-.-.-.-.-.-.-.-.-.-.-.z q.e.e.e.e., -.-.-.-.5XDXH..X.XK.NXFXFXFXFX{..X XM.A = = = = = = = ",
"_.h.z.j.u.4.= = = ' @., e.e.e.e.q.> { { { { { { { { { { { { > q.e.e.e.e., -.-.-.-.*XfXvX}..XK.[.FXFXFXFXbXP. XN.m.f = = = = = = ",
"^.B.g.l.c.n.y.= = | -., e.e.e.e.q.: ) ) ) ) ) ) ) ) ) ) ) ) : q.e.e.e.e., -.-.-.-.-.rXHXvXH.|.G.FXFXFXFXFXnXL.|.J.S = = = = = = ",
"U.Z a.k.v.b.b.b.b.9.-., w.e.e.e.0.z -.-.-._ -.-.-.-.-.-.-.-.z 0.e.e.e.w., -.-.-.-.-.-.pXAXAXAXAXAXAXAXAXAXAXAXAXAXK = = = = = = ",
"U.= = t.i.x.x.x.x.x.8.2 h 5.5.5.  m -.-.-.[ -.-.-.-.-.-.-.-.m   3.3.3.1 ; -.-.-.-.-.-.-.-.-.-.-.-.-.-.-.-.-.-.-.-.t = = = = = = ",
"U.= = = = p.p.p.p.p.p.r.O = = = @  . . . . . . . . . . . . . .@ & . . . !  . . . . . . . . . . . . . . . . . . . .e = = = = = = ",
"U.= = = = C C C C C C V % = = = * w w w w w w w w w w w w w w * E $ $ $ 9 w w w w w w w w w w w w w w w w w w w w 5 = = = = = = ",
"U.= = = = = = = = = = = = = = = = = = = = = = = = = = = = = = = U.= = = = = = = = = = = = = = = = = = = = = = = = = = = = = = = ",
"U.= = = = = = = = = = = = = = = = = = = = = = = = = = = = = = = U.= = = = = = = = = = = = = = = = = = = = = = = = = = = = = = = ",
"U.= = = = = = = = = = = = = = = = = = = = = = = = = = = = = = = U.= = = = = = = = = = = = = = = = = = = = = = = = = = = = = = = ",
"U.= = = = = = = = = = = = = = = = = = = = = = = = = = = = = = = U.= = = = = = = = = = = = = = = = = = = = = = = = = = = = = = = ",
"U.= = = = = = = = = = = = = = = = = = = = = = = = = = = = = = = U.= = = = = = = = = = = = = = = = = = = = = = = = = = = = = = = ",
"U.= = = = = = = = = = = = = = = = = = = = = = = = = = = = = = = U.= = = = = = = = = = = = = = = = = = = = = = = = = = = = = = = ",
"U.= = = = = = = = = = = = = = = = = = = = = = = = = = = = = = = U.= = = = = = = = = = = = = = = = = = = = = = = = = = = = = = = ",
"U.= = = = = = = = = = = = = = = = = = = = = = = = = = = = = = = U.= = = = = = = = = = = = = = = = = = = = = = = = = = = = = = = ",
"U.= = = = = = = = = = = = = = = = = = = = = = = = = = = = = = = U.= = = = = = = = = = = = = = = = = = = = = = = = = = = = = = = ",
"U.= = = = = = = = = = = = = = = = = = = = = = = = = = = = = = = U.= = = = = = = = = = = = = = = = = = = = = = = = = = = = = = = ",
"U.= = = = = = = = = = = = = = = = = = = = = = = = = = = = = = = U.= = = = = = = = = = = = = = = = = = = = = = = = = = = = = = = ",
"U.= = = = = = = = = = = = = = = = = = = = = = = = = = = = = = = U.= = = = = = = = = = = = = = = = = = = = = = = = = = = = = = = ",
"U.= = = = = = = = = = = = = = = = = = = = = = = = = = = = = = = U.= = = = = = = = = = = = = = = = = = = = = = = = = = = = = = = ",
"U.= = = = = = = = = = = = = = = = = = = = = = = = = = = = = = = U.= = = = = = = = = = = = = = = = = = = = = = = = = = = = = = = ",
"U.= = = = = = = = = = = = = = = = = = = = = = = = = = = = = = = U.= = = = = = = = = = = = = = = = = = = = = = = = = = = = = = = ",
"U.= = = = = = = = = = = = = = = = = = = = = = = = = = = = = = = U.= = = = = = = = = = = = = = = = = = = = = = = = = = = = = = = ",
"U.= = = = = = = = = = = = = = = = = = = = = = = = = = = = = = = U.= = = = = = = = = = = = = = = = = = = = = = = = = = = = = = = ",
"U.= = = = = = = = = = = = = = = = = = = = = = = = = = = = = = = U.= = = = = = = = = = = = = = = = = = = = = = = = = = = = = = = ",
"U.= = = = = = = = = = = = = = = = = = = = = = = = = = = = = = = U.= = = = = = = = = = = = = = = = = = = = = = = = = = = = = = = ",
"U.= = = = = = = = = = = = = = = = = = = = = = = = = = = = = = = U.= = = = = = = = = = = = = = = = = = = = = = = = = = = = = = = ",
"U.= = = = = = = = = = = = = = = = = = = = = = = = = = = = = = = U.= = = = = = = = = = = = = = = = = = = = = = = = = = = = = = = ",
"U.= = = = = = = = = = = = = = = = = = = = = = = = = = = = = = = U.= = = = = = = = = = = = = = = = = = = = = = = = = = = = = = = ",
"U.= = = = = = = = = = = = = = = = = = = = = = = = = = = = = = = U.= = = = = = = = = = = = = = = = = = = = = = = = = = = = = = = "
};
