/* XPM */
static char *result[] = {
/* columns rows colors chars-per-pixel */
"64 64 152 2 ",
"   c #040305",
".  c #0F020E",
"X  c #040A0C",
"o  c gray4",
"O  c #180317",
"+  c #1F041D",
"@  c #021616",
"#  c #021A1A",
"$  c #111111",
"%  c #1D1D1D",
"&  c #29041D",
"*  c #37041C",
"=  c #1F0720",
"-  c #1F0A22",
";  c #1C172B",
":  c #171E2F",
">  c #1B1B2E",
",  c #1D1B30",
"<  c #2D0922",
"1  c #32042F",
"2  c #3D0D29",
"3  c #201E20",
"4  c #2E172C",
"5  c #3A0436",
"6  c #032121",
"7  c #1B2336",
"8  c #1F2338",
"9  c #053333",
"0  c #22233B",
"q  c #3A3A3A",
"w  c #45061C",
"e  c #49091E",
"r  c #55061C",
"t  c #5C0C1F",
"y  c #740117",
"u  c #7E0318",
"i  c #49112E",
"p  c #41033D",
"a  c #4E1230",
"s  c #621E30",
"d  c #6C2E20",
"f  c #7E2A21",
"g  c #351C47",
"h  c #1E2E42",
"j  c #1A3848",
"k  c #33224B",
"l  c #6B0364",
"z  c #73036B",
"x  c #0E4F54",
"c  c #1A4655",
"v  c #075151",
"b  c #085C5C",
"n  c #334C4F",
"m  c #3E695B",
"M  c #0F5D62",
"N  c #1D5A68",
"B  c #285B60",
"V  c #0A6363",
"C  c #0A6969",
"Z  c #16636E",
"A  c #1D6C78",
"S  c #0B7474",
"D  c #0C7D7D",
"F  c #11777A",
"G  c #206562",
"H  c #3C6363",
"J  c #565656",
"K  c #5D565C",
"L  c #426161",
"P  c #437762",
"I  c #636363",
"U  c #686268",
"Y  c #6E6E6E",
"T  c #777076",
"R  c #840619",
"E  c #A0081A",
"W  c #B9141C",
"Q  c #BF1521",
"!  c #C31722",
"~  c #CD1823",
"^  c #D71821",
"/  c #ED1F24",
"(  c #EF2524",
")  c #E32922",
"_  c #E43323",
"`  c #F13024",
"'  c #F23825",
"]  c #F54725",
"[  c #F85E26",
"{  c #EA6524",
"}  c #FB6926",
"|  c #FC7127",
" . c #FF7E27",
".. c #B7325C",
"X. c #82027A",
"o. c #B20C70",
"O. c #C53662",
"+. c #A35B5E",
"@. c #D2416D",
"#. c #F14576",
"$. c #F34C7B",
"%. c #712184",
"&. c #1D7E88",
"*. c #8D0284",
"=. c #8A0886",
"-. c #95028B",
";. c #99038E",
":. c #950C8C",
">. c #9F0495",
",. c #831C93",
"<. c #A1088C",
"1. c #AB09A2",
"2. c #AE6D8E",
"3. c #CF5881",
"4. c #FA5A87",
"5. c #FB5C89",
"6. c #FF6691",
"7. c #D418CF",
"8. c #DC1BD8",
"9. c #C635DB",
"0. c #E51FE2",
"q. c #E920E5",
"w. c #EB21E8",
"e. c #985ED6",
"r. c #BC46E0",
"t. c #0D8383",
"y. c #138288",
"u. c #118689",
"i. c #0E9494",
"p. c #0F9D9D",
"a. c #1D9299",
"s. c #119B9B",
"d. c #1D9EA4",
"f. c #379DBC",
"g. c #10A6A6",
"h. c #1CA1A6",
"j. c #1CA4A9",
"k. c #15ACAC",
"l. c #15B5B5",
"z. c #1ABCBD",
"x. c #7B8FA5",
"c. c #59A2B0",
"v. c #43B1BA",
"b. c #30BCC1",
"n. c #678CD4",
"m. c #6290D4",
"M. c #44A3CA",
"N. c #49A5D0",
"B. c #1BC5C5",
"V. c #1CC9C9",
"C. c #22C5C7",
"Z. c #848BA2",
/* pixels */
";.*.*.*.*.*.*.*.*.*.*.*.*.*.*.*.*.*.*.*.*.*.*.*.*.*.*.*.*.*.*.*.;.*.*.*.*.*.*.*.*.*.*.*.*.*.*.*.*.*.*.*.*.*.*.*.*.*.*.*.*.*.*.*.",
"*.+ + + + + + + + + + + + + + + + + + + + + + + + + + + + + + + *.+ + + + + + + + + + + + + + + + + + + + + + + + + + + + + + + ",
"*.+ + + + + + + + + + + + + + + + + + + + + + + + + + + + + + + *.+ + + + + + + + + + + + + + + + + + + + + + + + + + + + + + + ",
"*.+ + + + + + + + + + + + + + + + + + + + + + + + + + + + + + + *.+ + + + + + + + + + + + + + + + + + + + + + + + + + + + + + + ",
"*.+ + + + + + + + + + + + + + + + + + + + + + + + + + + + + + + *.+ + + + + + + + + + + + + + + + + + + + + + + + + + + + + + + ",
"*.+ + + + + + + + + + + + + + + + + + + + + + + + + + + + + + + *.+ + + + + + + + + + + + + + + + + + + + + + + + + + + + + + + ",
"*.+ + + + + + + + + + + + + + + + + + + + + + + + + + + + + + + *.+ + + + + + + + + + + + + + + + + + + + + + + + + + + + + + + ",
"*.+ + + + + + + + + + + + + + + + + + + = + + + + + + + + + + + *.+ + + + + + + + + + + + + + + + + + + + + + + + + + + + + + + ",
"*.+ + + + + + + + + + + + + + + + + + + + + + + + + + + + + + + *.+ + + + + + + + + + + + + + + + + + + + + + + + + + + + + + + ",
"*.+ + + + + + + + + + + + + + + + + + + + + + + + + + + + + + + *.+ + + + + + + + + + + + + + & + + + + + + + + + + + + + + + + ",
"*.+ + + + + + + + + + + + + + + + + + + + + + + + + + + + + + + *.+ + + + + + + + + + + + + + + + + + + + + + + + + + + + + + + ",
"*.+ + + + + + + + + + + + + + + + + + + + + + + + + + + + + + + *.+ + + + + + + + + + + + + + + + + + + + + + + + + + + + + + + ",
"*.+ + + + + + + + + + + + + + + + + + + + + + + + + + + + + + + *.+ + + + + + + + + + + + + + + + + + + + + + + + + + + + + + + ",
"*.+ + + + + + + + + + + + + + + + + + + + + + + + + + + + + + + *.+ + + + + + + + + + + + + + + + + + + + + + + + + + + + + + + ",
"*.+ + + + + + + + + + + + + + + + + + + + + + + + + + + + + + + *.+ + + + + + + + + + + + + + + + + + + + + + + + + + + + + + + ",
"*.+ + + + + + + + + + + + + + + + + + + + + + + + + + + + + + + *.+ + + + + + + + + + + + + + + + + + + + + + + + + + + + + + + ",
"*.+ + + + + + + + + + + + + + + + + + + + + + + + + + + + + + + *.+ + + + + + + + + + + + + + + + + + + + + + + + + + + + + + + ",
"*.+ + + + + + + + + + + + + + + + + + + + + + + + + + + + + + + *.+ + + + + + + + + + + + + + + + + + + + + + + + + + + + + + + ",
"*.+ + + + + + + + + + + + + + + + + + + + + + + + + + + + + + + *.+ + + + + + + + + + + + + + + + + + + + + + + + + + + + + + + ",
"*.+ + + + + + + + + + + + + + + + + + + + + + + + + + + + + + + *.+ + + + + + + + + + + + + + + + + + + + + + + + + + + + + + + ",
"*.+ + + + + + + + + + + + + + + + + + = + + + + + + + + + + + = *.+ + + + + + + + + + + + + + + + + + + + = + + + + + + + + + + ",
"*.+ + + + + + + + + + + + + + & + + + = = = = = = = - - - - = - =.= - - = + + + + + + + + + + + + + + + + + + + + + + + + + + + ",
"*.+ + + + + & + + + h h h h h h h h 7 Z y.u.u.y.y.z.N.N.M.f.f.d.d.d.d.d.g 5 + + + + + + + + + + + + + + + + + + + + + + + + + + ",
"*.+ + + + + + + + ; l.l.j.j.h.h.j.l.i.j + + + & + &.r.w.7.1.>.p + + + + z -.1 + + + + + + + + + + + + + + + + + + + + + + + + + ",
"*.+ + + + + + + + x y.F h 0 h h j p.V 7 + + + + + 8 M.w.0.8.1.X.+ + + + 1 ;.l = = + + + + + + + + + + + + + + + + + + + + + + + ",
"*.+ + + + + + + + M S S y.y.u.y.&.b v : + + + + + + h m.w.w.8.>.z + + = = 5 -.l 1 = + + + + + + + + + + + + + + + + + + + + + + ",
"T + + + + + + + + M S D g.g.g.g.p.v v : + + + + + = + 8 n.q.w.q.;.z + < + + 5 ;.;.5 = = + = = + + + + + + + + + + + + + + + + + ",
":.U 4 < & 4 + + + M S D D t.t.t.D V V j 8 8 8 8 8 8 8 8 N B.e.9.9.,.,.k , 8 8 k %.,.0 , , 8 - = + + + + + + + + + + + + + + + + ",
":.K K s E +.d d d G S i.s.k.k.k.k.k.k.k.k.k.k.k.k.k.k.k.k.g.i.i.i.i.i.i.z.V.V.V.V.V.V.V.V.V.A c j = + + + + + + + + + + + + + + ",
"*.+ + + ~ /  . . .P S S S S S S S S S S S S S S S S S S t.g.V S S S S S p.V.V.V.V.V.V.V.V.V.V.V.z.< + + + + + + + + + + + + + + ",
"*.+ + + e t f ' ' H S S S S S S S S S S S S S S S S S S t.g.C S S S S S t.u.i.l.B.V.V.V.V.V.V.V.B.a.a.a., + + + + + + + + + + + ",
"*.+ + + & + + w u B S S S S S S S S S S S S S S S S S S u.g.C S S S S S S S &.k.B.V.V.V.V.V.V.V.V.V.V.B.8 + + + + + + + + + + + ",
"-.*.*.*.*.*.o.( ( H S b   o o o X C S S S S S S S S S S C v V X X X X   b S D k.z.V.V.b.b.b.C.V.V.V.V.V.b.<.;.*.*.*.*.*.*.*.*.*.",
"*.+ + + + t ]  .} m C   q Y Y Y % 6 S S S S S S S S S S S S 6 % Y Y Y q   S S D i.l.V.#.$.$.Z.C.V.V.V.V.3.$.@.a < & + + + + + + ",
"*.+ + + + /  .} ` n v $ Y Y Y Y I 6 S S S S S S S S S S S S 6 I Y Y Y Y $ S S S S p.V.$.6.6.$.b.V.V.V.V.3.6.5.O.i + + + + + + + ",
"*.+ + & r [ | _ W n C $ Y Y Y Y I # b b b b b b b b b b b b # I Y Y Y Y $ S S S S D l.x.4.6.$.2.V.V.V.V.c.4.5.@...2 + + + + + + ",
"*.+ + + Q  . .[ ) H S $ Y Y Y Y I # v v v v v v v v v v v v # I Y Y Y Y $ S S S S S g.C.x.$.4.#.V.V.V.V.V.v.$.5.$.a + + + + + + ",
"*.+ + + y  . . . .P S $ Y Y Y Y I 6 S S S v S S S S S S S S 6 I Y Y Y Y $ S S S S S S g.B.B.B.B.B.B.B.B.V.B.B.B.B.h + + + + + + ",
"*.+ + + + ^ { } } } L   3 K K K   9 S S S b S S S S S S S S 9   J J J 3 @ S S S S S S S S S S S S S S S S S S S S : + + + + + + ",
"*.+ + + & y R ! ! ! ! O . + + + X M M M M M M M M M M V M M M X &       v M M M M M M M M M M M M M M M M M M M M ; + + + + + + ",
"*.+ + + + * * w e e e + O + + + O , > > > > > > , > > > > > > O l O O O ; > > > > > > > > > > > > > > > > > > > > - + + + + + + ",
"*.+ + + + + + + + + + + + + + + + + + + + + + + + + + + + + + + *.+ + + + + + + + + + + + + + + + + + + + + + + + + + + + + + + ",
"*.+ + + + + + + + + + + + + + + + + + + + + + + + + + + + + + + *.+ + + + + + + + + + + + + + + + + + + + + + + + + + + + + + + ",
"*.+ + + + + + + + + + + + + + + + + + + + + + + + + + + + + + + *.+ + + + + + + + + + + + + + + + + + + + + + + + + + + + + + + ",
"*.+ + + + + + + + + + + + + + + + + + + + + + + + + + + + + + + *.+ + + + + + + + + + + + + + + + + + + + + + + + + + + + + + + ",
"*.+ + + + + + + + + + + + + + + + + + + + + + + + + + + + + + + *.+ + + + + + + + + + + + + + + + + + + + + + + + + + + + + + + ",
"*.+ + + + + + + + + + + + + + + + + + + + + + + + + + + + + + + *.+ + + + + + + + + + + + + + + + + + + + + + + + + + + + + + + ",
"*.+ + + + + + + + + + + + + + + + + + + + + + + + + + + + + + + *.+ + + + + + + + + + + + + + + + + + + + + + + + + + + + + + + ",
"*.+ + + + + + + + + + + + + + + + + + + + + + + + + + + + + + + *.+ + + + + + + + + + + + + + + + + + + + + + + + + + + + + + + ",
"*.+ + + + + + + + + + + + + + + + + + + + + + + + + + + + + + + *.+ + + + + + + + + + + + + + + + + + + + + + + + + + + + + + + ",
"*.+ + + + + + + + + + + + + + + + + + + + + + + + + + + + + + + *.+ + + + + + + + + + + + + + + + + + + + + + + + + + + + + + + ",
"*.+ + + + + + + + + + + + + + + + + + + + + + + + + + + + + + + *.+ + + + + + + + + + + + + + + + + + + + + + + + + + + + + + + ",
"*.+ + + + + + + + + + + + + + + + + + + + + + + + + + + + + + + *.+ + + + + + + + + + + + + + + + + + + + + + + + + + + + + + + ",
"*.+ + + + + + + + + + + + + + + + + + + + + + + + + + + + + + + *.+ + + + + + + + + + + + + + + + + + + + + + + + + + + + + + + ",
"*.+ + + + + + + + + + + + + + + + + + + + + + + + + + + + + + + *.+ + + + + + + + + + + + + + + + + + + + + + + + + + + + + + + ",
"*.+ + + + + + + + + + + + + + + + + + + + + + + + + + + + + + + *.+ + + + + + + + + + + + + + + + + + + + + + + + + + + + + + + ",
"*.+ + + + + + + + + + + + + + + + + + + + + + + + + + + + + + + *.+ + + + + + + + + + + + + + + + + + + + + + + + + + + + + + + ",
"*.+ + + + + + + + + + + + + + + + + + + + + + + + + + + + + + + *.+ + + + + + + + + + + + + + + + + + + + + + + + + + + + + + + ",
"*.+ + + + + + + + + + + + + + + + + + + + + + + + + + + + + + + *.+ + + + + + + + + + + + + + + + + + + + + + + + + + + + + + + ",
"*.+ + + + + + + + + + + + + + + + + + + + + + + + + + + + + + + *.+ + + + + + + + + + + + + + + + + + + + + + + + + + + + + + + ",
"*.+ + + + + + + + + + + + + + + + + + + + + + + + + + + + + + + *.+ + + + + + + + + + + + + + + + + + + + + + + + + + + + + + + ",
"*.+ + + + + + + + + + + + + + + + + + + + + + + + + + + + + + + *.+ + + + + + + + + + + + + + + + + + + + + + + + + + + + + + + ",
"*.+ + + + + + + + + + + + + + + + + + + + + + + + + + + + + + + *.+ + + + + + + + + + + + + + + + + + + + + + + + + + + + + + + ",
"*.+ + + + + + + + + + + + + + + + + + + + + + + + + + + + + + + *.+ + + + + + + + + + + + + + + + + + + + + + + + + + + + + + + "
};
