/* XPM */
static char *result[] = {
/* columns rows colors chars-per-pixel */
"64 64 152 2 ",
"   c #040305",
".  c #0F020E",
"X  c #040A0C",
"o  c gray4",
"O  c #180317",
"+  c #1F041D",
"@  c #021616",
"#  c #021A1A",
"$  c #111111",
"%  c #1D1D1D",
"&  c #37031B",
"*  c #1F0720",
"=  c #1F0A22",
"-  c #1C172B",
";  c #171E2F",
":  c #1B1B2E",
">  c #1D1C31",
",  c #280524",
"<  c #240B22",
"1  c #31042E",
"2  c #281726",
"3  c #390435",
"4  c #3A0436",
"5  c #321D31",
"6  c #032121",
"7  c #172435",
"8  c #1F2338",
"9  c #053333",
"0  c #22233B",
"q  c #3A2739",
"w  c #3A3A3A",
"e  c #4C021A",
"r  c #49091E",
"t  c #630118",
"y  c #780116",
"u  c #7A071B",
"i  c #55162E",
"p  c #511A37",
"a  c #351C47",
"s  c #1E2E42",
"d  c #1A3848",
"f  c #33224B",
"g  c #5F055A",
"h  c #65035E",
"j  c #473745",
"k  c #6B0364",
"l  c #71036A",
"z  c #0E4F54",
"x  c #1B4856",
"c  c #075151",
"v  c #085C5C",
"b  c #2D5458",
"n  c #0F5D62",
"m  c #1D5A68",
"M  c #205B60",
"N  c #0A6363",
"B  c #0A6969",
"V  c #16636E",
"C  c #0B7474",
"Z  c #0C7D7D",
"A  c #177279",
"S  c #3A6062",
"D  c #514450",
"F  c #565656",
"G  c #5D565C",
"H  c #724E56",
"J  c #426161",
"K  c #467761",
"L  c #636363",
"P  c #6A656A",
"I  c #6E6E6E",
"U  c gray50",
"Y  c #8B0115",
"T  c #9C0618",
"R  c #A80B1A",
"E  c #BA101E",
"W  c #B91D29",
"Q  c #BA2D36",
"!  c #C31722",
"~  c #D91621",
"^  c #DB1822",
"/  c #ED1E24",
"(  c #D92421",
")  c #D53238",
"_  c #E62B23",
"`  c #F23425",
"'  c #F23925",
"]  c #F45A27",
"[  c #F86326",
"{  c #FB6926",
"}  c #FF7D27",
"|  c #843944",
" . c #8F6165",
".. c #8C7374",
"X. c #C24B71",
"o. c #D15279",
"O. c #712184",
"+. c #1D7E88",
"@. c #8D0284",
"#. c #8A0886",
"$. c #95028B",
"%. c #98028E",
"&. c #97098B",
"*. c #9F0A98",
"=. c #8A1E9A",
"-. c #A20B8F",
";. c #852198",
":. c #AE0AA6",
">. c #BF14BA",
",. c #9024A3",
"<. c #EF5F89",
"1. c #DC759A",
"2. c #FF6A94",
"3. c #FF7199",
"4. c #FF799F",
"5. c #FF7DA2",
"6. c #D218CD",
"7. c #DA1AD5",
"8. c #C936DE",
"9. c #E61FE2",
"0. c #EB21E8",
"q. c #0D8383",
"w. c #138288",
"e. c #17858A",
"r. c #0E9494",
"t. c #0F9D9D",
"y. c #119494",
"u. c #1D9299",
"i. c #119B9B",
"p. c #1D9EA3",
"a. c #359EBA",
"s. c #10A6A6",
"d. c #1CA1A6",
"f. c #1CA4A9",
"g. c #15ACAC",
"h. c #15B5B5",
"j. c #1AB7B8",
"k. c #5EACB9",
"l. c #45B7BF",
"z. c #3EA0C3",
"x. c #49A4D0",
"c. c #1BC5C5",
"v. c #1CC9C9",
"b. c #22C6C7",
"n. c #31C0C4",
"m. c #8A9FB2",
"M. c #B885A2",
"N. c #81A0B3",
"B. c #FF8DAD",
"V. c #FF94B2",
"C. c #FF9CB8",
"Z. c #FFABC3",
/* pixels */
"%.@.@.@.@.@.@.@.@.@.@.@.@.@.@.@.@.@.@.@.@.@.@.@.@.@.@.@.@.@.@.@.%.@.@.@.@.@.@.@.@.@.@.@.@.@.@.@.@.@.@.@.@.@.@.@.@.@.@.@.@.@.@.@.",
"@.+ + + + + + + + + + + + + + + + + + + + + + + + + + + + + + + @.+ + + + + + + + + + + + + + + + + + + + + + + + + + + + + + + ",
"@.+ + + + + + + + + + + + + + + + + + + + + + + + + + + + + + + @.+ + + + + + + + + + + + + + + + + + + + + + + + + + + + + + + ",
"@.+ + + + + + + + + + + + + + + + + + + + + + + + + + + + + + + @.+ + + + + + + + + + + + + + + + + + + + + + + + + + + + + + + ",
"@.+ + + + + + + + + + + + + + + + + + + + + + + + + + + + + + + @.+ + + + + + + + + + + + + + + + + + + + + + + + + + + + + + + ",
"@.+ + + + + + + + + + + + + + + + + + + + + + + + + + + + + + + @.+ + + + + + + + + + + + + + + + + + + + + + + + + + + + + + + ",
"@.+ + + + + + + + + + + + + + + + + + + + + + + + + + + + + + + @.+ + + + + + + + + + + + + + + + + + + + + + + + + + + + + + + ",
"@.+ + + + + + + + + + + + + + + + + + + + + + + + + + + + + + + @.+ + + + + + + + + + , + + + + + + + + + + + + + + + + + + + + ",
"@.+ + + + + + + + + + + + + + + + + + + + + + + + + + + + + + * @.+ + + + + + + + + + + + + + + + + + + + + + + + + + + + + + + ",
"@.+ + + + + + + + + + + + + + + + + + + + + + + + + + + + + + + @.+ + + + + + + + + + + + + + + + + + + + + + + + + + + + + + + ",
"@.+ + + + + + + + + + + + + + + + + + + + + + + + + + + + + + + @.+ + + + + + + + + + + + + + + + + + + + + + + + + + + + + + + ",
"@.+ + + + + + + + + + + + + + + + + + + + + + + + + + + + + + + @.+ + + + + + + + + + + + + + + + + + + + + + + + + + + + + + + ",
"@.+ + + + + + + + + + + + + + + + + + + + + + + + + + + + + + + @.+ + + + + + + + + + + + + + + + + + + + + + + + + + + + + + + ",
"@.+ + + + + + + + + + + + + + + + + + + + + + + + + + + + + + + @.+ + + + + + + + + + + + + + + + + + + + + + + + + + + + + + + ",
"@.+ + + + + + + + + + + + + + + + + + + + + + + + + + + + + + + @.+ + + + + + + + + + + + + + + + + + + + + + + + + + + + + + + ",
"@.+ + + + + + + + + + + + + + + + + + + + + + + + + + + + + + + @.+ + + + + + + + + + + + + + + + + + + + + + + + + + + + + + + ",
"@.+ + + + + + + + + + + + + + + + + + + + + + + + + + + + + + + @.+ + + + + + + + + + + + + + + + + + + + + + + + + + + + + + + ",
"@.+ + + + + + + + + + + + + + + + + + + + + + + + + + + + + + + @.+ + + + + + + + + + + + + + + + + + + + + + + + + + + + + + + ",
"@.+ + + + + + + + + + + + + + + + + + + + + + + + + + + + + + + @.+ + + + + + + + + + + + + + + + + + + + + + + + + + + + + + + ",
"@.+ + + + + + + + + + + + + + + + + + + + + + + + + + + + + + + @.+ + + + + + + + + + + + + + + + + + + + + + + + + + + + + + + ",
"@.+ + + + + + + + + + + + + + * + + + * + + + + * + + + + + + + @.+ + + + + + + + + + + + + + + + + + + + + + + + + + + + + + + ",
"@.+ + + + + + + + + + + + + + * + + + * * = = * = = = = = = = = #.= = = * + + + + + + + + + + + + + + + + + + + + + + + + + + + ",
"@.+ + + + + + + + + s s s s s s s s 8 V w.w.w.w.w.j.p.p.z.x.x.x.a.p.p.p.a 4 + + + + + + + + + + + + + + + + + + + + + + + + + + ",
"@.+ + 2 < + + + + - h.h.d.d.d.p.f.h.r.d + + + + * +.s 1 *.7.9.0.*.1 + + l $.1 + + + + + + + + + + + + + + + + + + + + + + + + + ",
"@.+ + D 2 + + + + z q.A s s s s d t.N 7 + + + + + 8 p.* g :.6.0.6.h + + 1 %.k * + + + + + + + + + + + + + + + + + + + + + + + + ",
"&.P P j = + + + + n C C w.q.+.q.+.v c ; + + + + + + s e., 3 #.9.9.>.l g + 4 $.k 1 + + + + + + + + + + + + + + + + + + + + + + + ",
"&.U U j * + + + O n C +.s.s.s.s.t.c c ; + + + + + + , 8 +.+ , @.9.0.9.:.1 + 4 %.$.3 + + + + + + + + + + + + + + + + + + + + + + ",
"@.q U |  . .+ + + v C Z Z +.q.q.Z N N d 8 8 8 8 8 8 8 8 m c.x > =.8.8.8.,.8 0 f O.;.0 0 8 8 < + + + + + + + + + + + + + + + + + ",
"@.5 G G W R i q < n C i.i.g.g.g.g.g.g.g.g.g.g.g.g.g.g.g.g.s.r.r.r.t.r.r.h.v.v.v.v.v.v.v.v.v.A x d + + + + + + + + + + + + + + + ",
"@.+ + + y / ) P 5 n C C C C C C C C C C C C C C C C C C q.s.B C C C C C t.v.v.v.v.v.v.v.v.v.b.v.j., + + + + + + + + + + + + + + ",
"@.+ + + H / ] Q u M C C C C C C C C C C C C C C C C C C q.s.B C C C C C q.q.y.h.c.v.v.v.v.v.v.v.c.u.u.u.> + + + + + + + + + + + ",
"@.+ + + < ..` [ _ S C C C C C C C C C C C C C C C C C C q.s.B C C C C C C C +.g.c.v.v.v.v.v.v.v.v.v.v.v.8 + + + + + + + + + + + ",
"%.$.*.| 1 Y ' [ ` J C v   o o o X B C C C C C C C C C C B c N X X X o   v C Z s.j.v.v.n.n.n.b.v.v.v.v.v.z.&.-.| %.$.@.@.@.@.@.@.",
"#.= = + & R } ] ( b B   w I I I % 6 C C C C C C C C C C C C 6 % I I I w   C C Z r.h.v.2.4.4.m.b.v.v.v.v.1.3.1.p , = + + + + + + ",
"#.* + + y / { ~ T x c $ I I I I L 6 C C C C C C C C C C C C 6 L I I I I $ C C C C t.v.3.Z.Z.4.n.v.v.v.v.1.Z.C.o.j + + + + + + + ",
"@.* + e E ] { ~ T b B $ I I I I L # v v v v v v v v v v n v # L I I I I $ C C C C Z h.N.B.Z.4.M.v.v.v.v.k.B.C.<.X.3 + + + + + + ",
"@.* + t ^ } } [ _ S B $ I I I I L # c c c c c c c c c c c c @ L I I I I $ C C C C C s.b.N.3.V.2.v.v.v.v.v.l.5.V.3.p + + + + + + ",
"@.* + t ^ } } } } K C $ I I I I L 6 C C C c C C C C C C C C 6 L I I I I $ C C C C C C g.c.c.c.c.c.c.v.c.c.c.c.c.c.s + + + + + + ",
"@.+ + + t ^ { { { { J   % G G G   9 C C C v C C C C C C C C 9   F F F % @ C C C C C C C C C C C C C C C C C C C C ; + + + + + + ",
"@.+ + + + y ! ! ! ! ! O . + + + X n n n n n n n n n n N n n n X +       c n n n n n n n n n n n n n n n n n n n n - * + + + + + ",
"@.+ + + + & r r r r r + O + + + O : : : > : : : - > : : : : : O l O O O - : : : : : : : : : : : : : : : : : : > > * + + + + + + ",
"@.+ + + + + + + + + + + + + + + + + + + + + + + + + + + + + + + @.+ + + + + + + + + + + + + + + + + + + + + + + + + + + + + + + ",
"@.+ + + + + + + + + + + + + + + + + + + + + + + + + + + + + + + @.+ + + + + + + + + + + + + + + + + + + + + + + + + + + + + + + ",
"@.+ + + + + + + + + + + + + + + + + + + + + + + + + + + + + + + @.+ + + + + + + + + + + + + + + + + + + + + + + + + + + + + + + ",
"@.+ + + + + + + + + + + + + + + + + + + + + + + + + + + + + + + @.+ + + + + + + + + + + + + + + + + + + + + + + + + + + + + + + ",
"@.+ + + + + + + + + + + + + + + + + + + + + + + + + + + + + + + @.+ + + + + + + + + + + + + + + + + + + + + + + + + + + + + + + ",
"@.+ + + + + + + + + + + + + + + + + + + + + + + + + + + + * + + @.+ + + + + + + + + + + + + + + + + + + + + + + + + + + + + + + ",
"@.+ + + + + + + + + + + + + + + + + + + + + + + + + + + + + + + @.+ + + + + + + + + + + + + + + + + + + + + + + + + + + + + + + ",
"@.+ + + + + + + + + + + + + + + + + + + + + + + + + + + + + + + @.+ + + + + + + + * + + + + + + + + + + + + + + + + + + + + + + ",
"@.+ + + + + + + + + + + + + + + + + + + + + + + + + + + + + + + @.+ + + + + + + + + + + + + + + + + + + + + + + + + + + + + + + ",
"@.+ + + + + + + + + + + + + + + + + + + + + + + + + + + + + + + @.+ + + + + + + + + + + + + + + + + + + + + + + + + + + + + + + ",
"@.+ + + + + + + + + + + + + + + + + + + + + + + + + + + + + + + @.+ + + + + + + + + + + + + + + + + + + + + + + + + + + + + + + ",
"@.+ + + + + + + + + + + + + + + + + + + + + + + + + + + + + + + @.+ + + + + + + + + + + + + + + + + + + + + + + + + + + + + + + ",
"@.+ + + + + + + + + + + + + + + + + + + + + + + + + + + + + + + @.+ + + + + + + + + + + + + + + + + + + + + + + + + + + + + + + ",
"@.+ + + + + + + + + + + + + + + + + + + + + + + + + + + + + + + @.+ + + + + + + + + + + + + + + + + + + + + + + + + + + + + + + ",
"@.+ + + + + + + + + + + + + + + + + + + + + + + + + + + + + + + @.+ + + + + + + + + + + + + + + + + + + + + + + + + + + + + + + ",
"@.+ + + + + + + + + + + + + + + + + + + + + + + + + + + + + + + @.+ + + + + + + + + + + + + + + + + + + + + + + + + + + + + + + ",
"@.+ + + + + + + + + + + + + + + + + + + + + + + + + + + + + + + @.+ + + + + + + + + + + + + + + + + + + + + + + + + + + + + + + ",
"@.+ + + + + + + + + + + + + + + + + + + + + + + + + + + + + + + @.+ + + + + + + + + + + + + + + + + + + + + + + + + + + + + + + ",
"@.+ + + + + + + + + + + + + + + + + + + + + + + + + + + + + + + @.+ + + + + + + + + + + + + + + + + + + + + + + + + + + + + + + ",
"@.+ + + + + + + + + + + + + + + + + + + + + + + + + + + + + + + @.+ + + + + + + + + + + + + + + + + + + + + + + + + + + + + + + ",
"@.+ + + + + + + + + + + + + + + + + + + + + + + + + + + + + + + @.+ + + + + + + + + + + + + + + + + + + + + + + + + + + + + + + ",
"@.+ + + + + + + + + + + + + + + + + + + + + + + + + + + + + + + @.+ + + + + + + + + + + + + + + + + + + + + + + + + + + + + + + ",
"@.+ + + + + + + + + + + + + + + + + + + + + + + + + + + + + + + @.+ + + + + + + + + + + + + + + + + + + + + + + + + + + + + + + "
};
