/* XPM */
static char *result[] = {
/* columns rows colors chars-per-pixel */
"64 64 156 2 ",
"   c #040305",
".  c #0F020E",
"X  c #040A0C",
"o  c gray4",
"O  c #180317",
"+  c #1F041D",
"@  c #021616",
"#  c #021A1A",
"$  c #111111",
"%  c #1D1D1D",
"&  c #2A051D",
"*  c #35041C",
"=  c #1F0720",
"-  c #1F0A22",
";  c #1C172B",
":  c #171E2F",
">  c #1B1B2E",
",  c #1D1C31",
"<  c #2D0627",
"1  c #240A22",
"2  c #32042F",
"3  c #3F0F2C",
"4  c #2C152A",
"5  c #3A0436",
"6  c #321C30",
"7  c #032121",
"8  c #172435",
"9  c #1F2438",
"0  c #053333",
"q  c #22233B",
"w  c #392638",
"e  c #3A3A3A",
"r  c #46081E",
"t  c #49091E",
"y  c #560219",
"u  c #580A1F",
"i  c #640118",
"p  c #710117",
"a  c #471126",
"s  c #4C1432",
"d  c #511534",
"f  c #381D4A",
"g  c #1E2E42",
"h  c #1A3848",
"j  c #33224B",
"k  c #5F055A",
"l  c #7A3C48",
"z  c #6B0364",
"x  c #73036B",
"c  c #0C4046",
"v  c #0E4F54",
"b  c #1B4856",
"n  c #075151",
"m  c #0E5459",
"M  c #085C5C",
"N  c #1D5156",
"B  c #0F5D62",
"V  c #1D5A68",
"C  c #285B78",
"Z  c #0A6363",
"A  c #0A6969",
"S  c #16636E",
"D  c #0B7474",
"F  c #0C7D7D",
"G  c #177279",
"H  c #396062",
"J  c #50434F",
"K  c #565656",
"L  c #5D575C",
"P  c #66434E",
"I  c #784750",
"U  c #426161",
"Y  c #467761",
"T  c #636363",
"R  c #696268",
"E  c #6E6E6E",
"W  c #7C7B7C",
"Q  c #880015",
"!  c #910316",
"~  c #AC0C1A",
"^  c #B20E1C",
"/  c #A41120",
"(  c #B71421",
")  c #842D3B",
"_  c #C31722",
"`  c #DD1822",
"'  c #E31923",
"]  c #EB1B24",
"[  c #EF2624",
"{  c #F02B24",
"}  c #F23A25",
"|  c #F75926",
" . c #FA6226",
".. c #FB6A26",
"X. c #FF7F27",
"o. c #960272",
"O. c #C23D67",
"+. c #81696C",
"@. c #D1426E",
"#. c #EF4D7C",
"$. c #712184",
"%. c #1D7E88",
"&. c #8D0284",
"*. c #8A0886",
"=. c #94028A",
"-. c #980789",
";. c #98028E",
":. c #9F0A98",
">. c #831C93",
",. c #A2098E",
"<. c #852198",
"1. c #AA08A1",
"2. c #B20BAA",
"3. c #B87799",
"4. c #DC5981",
"5. c #FF5887",
"6. c #DC658E",
"7. c #FF608D",
"8. c #FF6B95",
"9. c #FF729A",
"0. c #B12DC4",
"q. c #D218CD",
"w. c #DB1BD7",
"e. c #E61FE3",
"r. c #C93AE2",
"t. c #E920E6",
"y. c #EB21E8",
"u. c #0D8383",
"i. c #138288",
"p. c #17858A",
"a. c #0E9494",
"s. c #0F9D9D",
"d. c #1D9299",
"f. c #119B9B",
"g. c #1D9EA3",
"h. c #269EAC",
"j. c #349EB9",
"k. c #10A6A6",
"l. c #1CA1A6",
"z. c #1CA4A9",
"x. c #15ACAC",
"c. c #15B5B5",
"v. c #1AB7B8",
"b. c #52ADB9",
"n. c #2EBFC3",
"m. c #31BEC2",
"M. c #46A3CC",
"N. c #49A4D0",
"B. c #1BC5C5",
"V. c #1CC9C9",
"C. c #22C6C7",
"Z. c #8498AD",
"A. c #FF85A7",
"S. c #FF8DAE",
"D. c #FF98B5",
"F. c #FFABC3",
/* pixels */
";.&.&.&.&.&.&.&.&.&.&.&.&.&.&.&.&.&.&.&.&.&.&.&.&.&.&.&.&.&.&.&.=.&.&.&.&.&.&.&.&.&.&.&.&.&.&.&.&.&.&.&.&.&.&.&.&.&.&.&.&.&.&.&.",
"&.+ + + + + + + + + + + + + + + + + + + + + + + + + + + + + & + &.= + + + + + + + + + + + + + + + + + + + + + + + + + + + + + + ",
"&.+ + + + + + + + + + + + + + + + + + + + + + + + + + + + + + + &.+ + + + + + + + + + + + + + + + + + + + + + + + + + + + + + + ",
"&.+ + + + + + + + + + + + + + + + + + + + + + + + + + + + + + + &.+ + + + + + + + + + + + + + + + + + + + + + + + + + + + + + + ",
"&.+ + + + + + + + + + + + + + + + + + + + + + + + + + + + + + + &.+ + + + + + + + + + + + + + + + + + + + + + + + + + + + + + + ",
"&.+ + + + + + + + + + + + + + + + + + + + + + + + + + + + + + + &.+ + + + + + + + + + + + + + + + + + + + + + + + + + + + + + + ",
"&.+ + + + + + + + + + + + + + + + + + + + + + + + + + + + + + + &.+ + + + + + + + + + + + + + + + + + + + + + + + + + + + + + + ",
"&.+ + + + + + + + + + + + + + + + + + + + + + + + + + + + + + = &.+ + + + + + + + + + + + + + + + + + + + + + + + + + + + + + + ",
"&.+ + + + + + + + + + + + + + + + + + + + + + + + + + + + + + + &.+ + + + + + + + + + + + + + + + + + + + + + + + + + + + + = + ",
"&.+ + + + + + + + + + + + + + + + + + + + + + + + + + + + + + + &.+ + + + + + + + + + + + + + + + + + + + + + + + + + + + + + + ",
"&.+ + + + + + + + + + + + + + + + + + + + + + + + + + + + + + + &.+ + + + + + + + + + + + + + + + + + + + + + + + + + + + + + + ",
"&.+ + + + + + + + + + & + + + + + + + + + + + + + + + + + + + + &.+ + + + + + + + + + + + + + + + + + + + + + + + + + + + + + + ",
"&.+ + + + + + + + + + + + + + + + + + + + + + + + + + + + + + + &.+ + + + + + + + + + + + + + + + + + + + + + + + + + + + + + + ",
"&.+ + + + + + + + + + + + + + + + + + + + + + + + + + + + + + + &.+ + + + + + + + + + + + + + + + + + + + + + + + + + + + + + + ",
"&.+ + + + + + + + + + + + + + + + + + + + + + + + + + + + + + + &.+ + + + + + + + + + + + + + + + + + + + + + + + + + + + + + + ",
"&.+ + + + + + + + + + + + + + + + + + + + + + + + + + + + + + + &.+ + + + + + + + + + + + + + + + + + + + + + + + + + + + + + + ",
"&.+ + + + + + + + + + + + + + + + + + + + + + + + + + + + + + + &.+ + + + + + + + + + + + + + + + + + + + + + + + + + + + + + + ",
"&.+ + + + + + + + + + + + + + + + + + + + + + + + + + + + + + + &.+ + + + + + + + + + + + + + + + + + + + + + + + + + + + + + + ",
"&.+ + + + + + + + + + + + + + + + + + + + + + + + + + + + + + + &.+ + + + + + + + + + + + + + + + + + + + + + + + + + + + + + + ",
"&.+ + + + + + + + + + + + + + + + + + + + + + + + + + + + + + + &.+ + + + + + + + + + + + + + + + + + + + + + + + + + + + + + + ",
"&.+ + + + + + + + + + + + + + + + + + + + + + + = + + + + + + + &.+ + + + + + + + + + + + + + + + + + + + + + + + + + + + + + + ",
"&.+ + = + + + + + + + + + + + = + + + = = = = - - - - - - = = = *.= - - + + + + + + + + + + + + + + + + + + + + + + + + + + + + ",
"&.+ + L 4 + + + + + g g g g g g g g 9 S i.i.i.i.u.v.l.g.l.g.j.M.N.M.j.h.f 5 + + + + + + + + + + + + + + + + + + + + + + + + + + ",
"&.+ + J 4 + + + = ; c.c.l.l.l.g.z.c.a.h + + + = + %.g + + + z q.e.w.1.k x ;.2 + + + + + + + + + + + + + + + + + + + + + + + + + ",
"&.+ + 4 - + + + + v u.G g g g g h s.Z 8 + + + + + 9 g.+ + + 2 :.y.e.w.:.k ;.z = = + + + + + + + + + + + + + + + + + + + + + + + ",
"&.+ + + + T + + + B D D i.u.%.u.%.M n : + + + + + + g p.+ + + 2 2.y.y.w.x 5 =.z 2 = + + + + + + + + + + + + + + + + + + + + + + ",
"&.+ + + & & W R 6 B D F k.k.k.k.s.n n : + + + + + = + 9 p.& + + 2 2.y.y.t.=.5 ;.;.5 + & + = = + + + + + + + + + + + + + + + + + ",
"&.+ + + 4 < W L 6 B D F F u.%.u.F Z Z h 9 9 9 9 9 9 9 9 V B.b > , f >.0.r.r.$.j $.<., q , 9 - = + + + + + + + + + + + + + + + + ",
"&.+ + * I ) J + + B D a.f.x.x.x.x.x.x.x.x.x.x.x.x.x.x.x.x.k.a.a.a.a.a.a.v.V.V.V.V.V.V.V.V.V.G b h = = + + + + + + + + + + + + + ",
"&.+ + i Q W + + + M D D D D D D D D D D D D D D D D D D u.k.A D D D D D s.V.V.V.V.V.V.V.V.V.C.V.v.1 + + + = + + + + + + + + + + ",
"-.P i l a w + + + B D D D D D D D D D D D D D D D D D D i.k.A D D D D D F a.a.c.B.B.V.V.V.V.V.V.B.d.d.d., 1 + + + + + + + + + + ",
"=./ ' / * + + + + B D D D D D D D D D D D D D D D D D D u.k.A D D D D D D D u.x.B.V.V.V.V.V.V.V.V.V.V.V., + + + + + + + + + + + ",
"+.~ [ ~ o.&.&.&.&.C D M X o o o X A D D D D D D D D D D A n Z X X o o   M D F x.v.V.V.n.n.m.C.V.V.V.V.V.C.,.,.&.&.&.&.&.&.&.&.&.",
"! } X.| ^ u * + & m A   e E E E % 7 D D D D D D D D D D D D 7 % E E E e   D D F a.c.V.5.8.8.Z.C.V.V.V.V.6.7.4.d < & + + + + + + ",
"! } ..X.{ ] p + O c n $ E E E E T 7 D D D D D D D D D D D D 7 T E E E E $ D D D D s.V.7.F.F.8.m.V.V.V.V.6.F.D.@.s + + + + + + + ",
"! [ | .. .| ^ i i N A $ E E E E T # M M M M M M M Z M M M M # T E E E E $ D D D D u.c.Z.A.F.8.3.V.V.V.V.b.9.D.#.O.3 + + + + + + ",
"o.~ ] | X.X.| ` ` H D $ E E E E T # n n n n n n n n n n n n @ T E E E E $ D D D D D k.C.Z.7.S.5.V.V.V.V.V.b.9.S.7.d + + + + + + ",
"&.u ] ] ..X.X.X.X.Y D $ E E E E T 7 D D D n D D D D D D D D 7 T E E E E $ D D D D D D k.B.B.B.B.B.B.B.B.B.V.B.B.V.9 + + + + + + ",
"&.* p ^ ] ..........U   % L L L   0 D D D M D D D D D D D D 0   K K K % @ D D D D D D D D D D D D D D D D D D D D , + + + + + + ",
"&.+ & y ( _ _ _ _ _ _ + . + + + X B B B B B B B B B B B B B B X +       v B B B B B B B B B B B B B B B Z B B B B > + + + + + + ",
"&.+ + & r r r r t t t + O + + + O > > > > > > > : , > > > > > O x O O O ; > > > > > > > > > > > > > > > > > > > > - + + + + + + ",
"&.+ + + & + + & + + + + + + + + + + + + + + + + + + + + + + + + &.+ + + + + + + + + + + + + + + + + + + + + + + + + + + + + + + ",
"&.+ + + + + + + + + + + + + + + + + + + + + + + + + + + + + + + &.+ + + + + + + + + + + + + + + + + + + + + + + + + + + + + + + ",
"&.+ + + + + + + + + + + + + + + + + + + + + + + + + + + + + + + &.+ + + + + + + + + + + + + + + + + + + + + + + + + + + + + + + ",
"&.+ + + + + + + + + + + + + + + + + + + + + + + + + + + + + + + &.+ + + + + + + + + + + + + + + + + + + + + + + + + + + + + + + ",
"&.+ + + + + + + + + + + + + + + + + + + + + + + + + + + + + + + &.+ + + + + + + + + + + + + + + + + + + + + + + + + + + + + + + ",
"&.+ + + + + + + + + + + + + + + + + + + + + + + + + + + + + + + &.+ + + + + + + + + + + + + + + + + + + + + + + + + + + + + + + ",
"&.+ + + + + + + + + + + + + + + + + + + + + + + + + + + + + + + &.+ + + + + + + + + + + + + + + + + + + + + + + + + + + + + + + ",
"&.+ + + + + + + + + + + + + + + + + + + + + + + + + + + + + + + &.+ + + + + + + + + + + + + + + + + + + + + + + + + + + + + + + ",
"&.+ + + + + + + + + + + + + + + + + + + + + + + + + + + + + + + &.+ + + + + + + + + + + + + + + + + + + + + + + + + + + + + + + ",
"&.+ + + + + + + + + + + + + + + + + + + + + + + + + + & + + + + &.+ + + + + + + + + + + + + + + + + + + + + + + + + + + + + + + ",
"&.+ + + + + + + + + + + + + + + + + + + + + + + + + + + + + + + &.+ + + + + + + + + + + + + + + + + + + + + + + + + + + + + + + ",
"&.+ + + + + + + + + + + + + + + + + + + + + + + + + + + + + + + &.+ + + + + + + + + + + + + + + + + + + + + + + + + + + + + + + ",
"&.+ + + + + + + + + + + + + + + + + + + + + + + + + + + + + + + &.+ + + + + + + + + + + + + + + + + + + + + + + + + + + + + + + ",
"&.+ + + + + + + + + + + + + + + + + + + + + + + + + + + + + + + &.+ + + + + + + + + + + + + + + + + + + + + + + + + + + + + + + ",
"&.+ + + + + + + + + + + + + + + + + + + + + + + + + + + + + + + &.+ + + + + + + + + + + + + + + + + + + + + + + + + + + + + + + ",
"&.+ + + + + + + + + + + + + + + + + + + + + + + + + + + + + + + &.+ + + + + + + + + + + + + + + + + + + + + + + + + + + + + + + ",
"&.+ + + + + + + + + + + + + + + + + + + + + + + + + + + + + + + &.+ + + + + + + + + + + + + + + + + + + + + + + + + + + + + + + ",
"&.+ + + + + + + + + + + + + + + + + + + + + + + + + + + + + + + &.+ + + + + + + + + + + + + + + + + + + + + + + + + + + + + + + ",
"&.+ + + + + + + + + + + + + + + + + + + + + + + + + + + + + + + &.+ + + + + + + + + + + + + + + + + + + + + + + + + + + + + + + ",
"&.+ + + + + + + + + + + + + + + + + + + + + + + + + + + + + + + &.+ + + + + + + + + + + + + + + + + + + + + + + + + + + + + + + ",
"&.+ + + + + + + + + + + + + + + + + + + + + + + + + + + + + + + &.+ + + + + + + + + + + + + + + + + + + + + + + + + + + + + + + ",
"&.+ + + + + + + + + + + + + + + + + + + + + + + + + + + + + + + &.+ + + + + + + + + + + + + + + + + + + + + + + + + + + + + + + ",
"&.+ + + + + + + + + + + + + + + + + + + + + + + + + + + + + + + &.+ + + + + + + + + + + + + + + + + + + + + + + + + + + + + + + "
};
