/* XPM */
static char *f698bfa6faa2489eab4c98b282026bd1WxXPlH2Zz6asJxYG[] = {
/* columns rows colors chars-per-pixel */
"64 64 97 2 ",
"   c #020103",
".  c #080007",
"X  c #04050A",
"o  c #0B000B",
"O  c #010C0D",
"+  c #10000F",
"@  c #0D0411",
"#  c #040E12",
"$  c #0A0C15",
"%  c #0D0D19",
"&  c #140113",
"*  c #180217",
"=  c #160419",
"-  c #1E031C",
";  c #120C1C",
":  c #1B081F",
">  c #031315",
",  c #061519",
"<  c #0A131C",
"1  c #02191B",
"2  c #21001E",
"3  c #1D0521",
"4  c #150E22",
"5  c #1C0B25",
"6  c #1E0D29",
"7  c #0D1621",
"8  c #041E21",
"9  c #0B1923",
"0  c #0E1C2A",
"q  c #141224",
"w  c #191126",
"e  c #111827",
"r  c #16162A",
"t  c #1B132B",
"y  c #141B2B",
"u  c #19192E",
"i  c #1A1730",
"p  c #171E33",
"a  c #1A1C33",
"s  c #240122",
"d  c #280026",
"f  c #210827",
"g  c #240728",
"h  c #210B2A",
"j  c #032224",
"k  c #082026",
"l  c #052528",
"z  c #0B222C",
"x  c #042C2D",
"c  c #08282E",
"v  c #11202E",
"b  c #0F2532",
"n  c #062D31",
"m  c #0B2B34",
"M  c #0E2E39",
"N  c #132435",
"B  c #192137",
"V  c #102A37",
"C  c #162639",
"Z  c #182338",
"A  c #112C3A",
"S  c #043234",
"D  c #063539",
"F  c #0C333D",
"G  c #043A3C",
"H  c #083A3F",
"J  c #10303E",
"K  c #0F3642",
"L  c #053E41",
"P  c #0C3B44",
"I  c #0E3E48",
"U  c #113543",
"Y  c #103946",
"T  c #103D4A",
"R  c #044445",
"E  c #094146",
"W  c #064749",
"Q  c #0B454D",
"!  c #054B4C",
"~  c #0A484E",
"^  c #0C4750",
"/  c #064F51",
"(  c #0A4C52",
")  c #055354",
"_  c #095156",
"`  c #075558",
"'  c #0A555A",
"]  c #065A5C",
"[  c #09595E",
"{  c #075E60",
"}  c #085E61",
"|  c #066364",
" . c #096265",
".. c #066A6B",
"X. c #09696B",
"o. c #086F70",
"O. c #077474",
/* pixels */
"- - 2 : - - - - - - - - - d - - - - g - - - - - - - - - - g - g - - - g - - g - - - d - - - - - d - - - - f - - - - d : - : - - ",
"2 - 2 2 - f - s - - - d - : - - - - - - - g - g - - - g - - - - : - - - - - - - - - : - - : - - - w - - - - - - - - - - - - - d ",
"2 2 : 2 - - - - f - - - - - - - d : - - - - - - - - - - g - g - - - d g - - g - - - - - - - - - - Q e - g - - - - - - - - - - - ",
": 2 : 2 - - - - - - - - - : : - - - - - - - - - - : d - - - - - - - : - - g - - - - d - - d : : : ) 1 - - - - - d - - - - : - : ",
"2 : - - . - - - - - - - d : - - - - - - - - - - g - - - - g g - g - - - g - - g - f - - - - - - : ' 8 - : - - - - - - d - - - - ",
": 2 : * . : - : - g - - - - - d g - - - - - f - - - g - - - - - - - - : - - - - - - - - - 2 * X #  .O.O.o.- - : - g - - - d : d ",
"2 2 - * . : 2 - - - - - - - - - - - - g - - - - g - - - - - - - - - - - - g - g - - - - - - - O # / j O O - - - - - - - - - - - ",
": - - * X 2 - - - g - - f - - - - - - - - - - - - - g - g - - g - g - - - - - - - - f - - - * @ O / 1 O X 2 - - - - - - - - - : ",
": 2 2 * . * - - - - - - f - - - - - - d : - - d - - - - - - - - - g - - o u - - - - - - - - : #   ) 1   @ - - - - - g - - g - - ",
"2 2 * X O X - - - - - - - - - - - - - - - - : g - - f - - - - - - - - - o  .w - - - - - - - w (   ) 1   @ - - - - - - - - - - - ",
": 2 * > ) X - - - - - - - - - - - d - - - - - - - - - - f - 2 - - - - - O O.# * - - - f - - - O O ) 1 X X - - - g - - - - g - - ",
"- - * X O   - - - - - d - - g - - - - - - - - - - d s - - - : - - : - - O O.O @ : - - - - - w ]   ) 1 . O - - - - - - - - - - - ",
"- : * # L X * 2 g - g - - g - - - - - - - - 2 2 - - - - - - : : - - - - q O.# > Y w - - - - : l   ) >   # - - - - g - g - - - - ",
"- - - X > . * : - - - - - - - - - - f - - - * - : - * - & 2 - - - g - - < O.> 1 ! , * - : - : L O ) 1   $ - - - - - - - - - g - ",
"2 2 & X O X : - - - g - - g - g f - - - - - X O X . @ > X 2 2 : - - : : < O.1 j ! 8 > w w - - >   ) 1   < - g - - - - - - g - - ",
"- * . X $ $ : - - g - - - - - - - - - : - - O L , X O ) , @ 2 2 - g u ' X.O.X.o.o.X.X.X.' u - @   ) 1   : - - - - g g - - - - - ",
"- *           * - : - - - : - : - - - - - - > ! 1     | > & 2 2 2 2 *       O R x ) O | , * 2   O ) 1     : 2 2 : 2 : 2 - - - - ",
"- * X         & - - - * - - - - - - - : - - > G >     ) > & - 2 2 2 * X     > ! x )   | , * *     ) 1     - - - - - 2 : - - - - ",
": & .         & * - - * - : - - - * - * @ > O 1 O O   j O O X * : : &       > R x ) O { , & *     ) >     : 2 2 - 2 2 2 - - - : ",
"* X           X & - - : - * * * - - * * O R 1 x j S > G j x O * 2 * =       O R x ) O | , * *     ) 1     - : 2 : * * : : - - - ",
"*               & * - * 2 * * : * * = * X # L l S j ! 1 G ,   * * * * X     > ! x ) O | > & * X O ) 1     * * * * * * - * - - - ",
"*               & * * * ; * * * * * : * . .   X               * ; - * .     O R S ) O | , * * X   ) 1     :   . * : - * - * - - ",
"X L 1 1 ! > , S , * * * * * * * * : * &     O R x ! X ` >     * * * & .     > R x ) O { , * *     ) >     -     * * * : * - * : ",
"  8 ! R S W ) 1 O & * * * * * * * * * *     > R x ) X | >     * ; * & .     O R x ) O | , & *   O ) 1     *     @ * - * : * * * ",
"  > ! D / 1 ] ,   & * * * * * * * * * & .   # W x ` X | >     * * * & . X   # ! S ) X | > & & . X ) 1   X 2 > > # * * * - : * * ",
"  > R x {   ] , . & * * & * * * * * * & .   # ! x ` X | ,   . * ; 2 * .   . # W x ) X | , & *   X _ 1 .   * ' W > & * - * * * * ",
"  , R x {   ] 1 X & * * * * * * * * * & . . $ W n ` X | ,   . * X.q & .     # ! S ) X | , & * . X ) 1 . . 2 [ 1 o o * * - * * - ",
". , Q x { . ] < . + * * * * * * * * * & . . > W n ` O | , . . * o.q & . . . $ W S ` @ | < * * . X / 1 .   * X.) , o * * * * * * ",
". % Q x ] . ] < + & * * * * 2 * * * * * . . > ~ n ` X  ., . . * o.q * . . . % ! n ` @ | , * * o @ / 1 o . - [ k X . o + o + * * ",
". < Q c { o { < o * * * * * * * * ; * * o o $ Q n ` @  .< . o * o.q * + + . % W n ` @ | < & * o @ ) 1 o . - } c 9 < < < , @ * - ",
"o < Q m { o ] < + * * * * * * * * * * * + o % W M ` @ ' < o + q o.w * + + . % ! n ` @  .7 * * + @ / e o o - ' ) / / / / E < * - ",
"+ < Q x { + ' 7 + * * 2 2 * 2 * - - * * + + % Q M ` @ $ + + % } o.w * + o + % ~ M ` @ } q * * + @ ) e + o - ; $ ; ; % % & & * * ",
"+ ; Q m { & [ 7 + * 2 * * - * * - * - * & o ; ~ m _ ; & e ] [ ; o.w * & + + ; ~ m ' & | q * - & @ ' 7 & & - + o & & + + + & * - ",
"& 7 Q V { & [ e & * : 2 2 2 2 : - - - - & & 4 ~ y ; < [ ~ v ; & o.w * & + * ; ~ M ' ; | q * * & ; ( 7 & & - ; q q < 4 q ; * = - ",
"& q Q V } & [ e * 2 ; 2 2 2 2 2 - 2 2 - & & 4 ^ y e Q ] v * * & o.q 4 * + * q ~ M [ =  .w = 2 * = ' e & & - I ^ Q Q Q Q P 4 2 2 ",
"* q Q A [ * [ r * - 2 2 2 : : 2 2 - - - * * 4 ^ V K y r * & * * o.y V 4 * * q Q A [ =  .r - - * = ( e * * 3 w r e e e u w = 2 2 ",
"2 q Q V } 2 [ w * 2 2 2 2 s 2 2 2 2 2 2 * * 4 ^ r 5 * * * * * * ..w 5 = * * 5 Q A ' = } w - 2 * = ( r * * s * = = = * = * * 3 s ",
"2 q Q C [ 2 ' u 2 2 2 2 s s s s 2 s s 2 - - 5 Q r * - * - * 2 * ..N I r 2 * 5 Q A ( 3 ] w 2 s * 3 ( w - * s 4 I C ( = ] w * 2 2 ",
"2 t Q Z ' 2 ' u 2 2 d 2 3 s - 6 2 s s 2 - - 5 Y w - - - * 2 * - | w 5 = - - 5 Q V ( 3 ] w 6 6 5 w ( w = * s * 3 3 3 * 3 * - 2 s ",
"2 h Q Z ' 2 _ u 2 2 2 2 A a e T 2 2 s s 2 - 3 5 3 - - - - 2 2 2 { r N 5 - 2 5 P N ~ 3 ` i A I I I ( r - - s - 5 3 4 - 5 - 2 2 2 ",
"2 6 Q B _ 2 ( 6 2 s s s N Y Y C 2 2 s 2 2 2 2 w f s 2 2 - 2 2 2 { 6 6 3 2 - 5 P Z Q 3 ( w t p u i ~ w - - s 3 N r C - A 5 2 s s ",
"2 6 Y Z ( d ^ i s s d f U a a ^ 2 d d 2 2 f t Y E 6 2 2 2 2 2 2 ` 6 3 - 2 2 5 Y N Q 3 ( 6 5 A 3 3 I w 2 2 s 2 6 3 5 3 5 3 - s 2 ",
"2 6 Y Z ( d ^ i s s d f I t f _ 2 d d d s ) Q C Y 6 s 2 s 2 s s ` 5 s 2 s 2 6 U N I 3 ~ 6 3 3 s s P 6 2 2 s 2 2 3 - s - 2 2 s s ",
"d h J Z Q 2 Q h s d d f Y t f ( d s t Y Q g g 6 J 6 s 2 s 2 s 2 / 5 s s 2 s f F p P s W 6 6 A 3 3 P t s 2 s 2 2 s 3 2 2 2 2 2 s ",
"d h J B Q d E h d h h f U t f W s f Z t h s d t J f s d d 2 s 2 ! 6 s s s s f J p P 3 E 6 s 3 6 6 P y 5 6 6 2 s s 2 2 s s 2 s s ",
"d h J a E d E h f C P h U t f Q d d h g s s s h J h s s d s d d W f s s s s f V i K s L 6 s f F V K A m V V s s 2 s s 2 2 s s s ",
"d h A a E d H h d t ~ h A 6 f E d d s d s d d h A h 2 d 2 d d 2 R f s s d s f V y M s P 6 s 3 L 6 t w u t t 2 d d 2 s s d 2 2 d ",
"d h A a J d H h d g R h J 6 f E d s d d d d s h V f d d 2 d s d L f d s s d f V i D f D 6 s f H s N e N f G s 2 2 d 2 s 2 s 2 s ",
"d h C a F d F h d f G f A 6 f H d s d d s d s f V f s d d 2 d d G f d 2 s s 3 b r m s D 6 s 3 D s m e b 5 D f s s s s 2 s s 2 s ",
"d h Z i D d m h d g G f V 6 f D d d s d d s d f N 5 d s s d d 2 G s s d s s f N e b f n 3 d 3 S s 5 3 3 3 5 s 2 2 2 2 s 2 2 s 2 ",
"d h N t n d m f d f D f b 6 f m d s d s s d s 5 v f s s s s s s S 3 s s s s f 0 w b s c 5 s 3 n 3 r 5 w 3 0 2 2 2 2 2 2 2 2 2 2 ",
"2 g v t m s m 3 d s S f z 6 3 n s s s s s 2 s f y 3 s s s s 2 s S 3 s 2 s s 3 0 r z 3 x 3 s 3 c 3 3 3 3 - 5 2 2 2 2 2 2 2 2 2 2 ",
"d g v w x s c f d s n 6 0 5 f c s s s s s s d 3 0 3 2 s 2 2 2 2 x 3 s 2 s 2 3 0 4 0 = l 3 - = l 2 2 2 2 - - - - - 2 2 - - - - - ",
"d 2 e w l d z 3 s 3 x 6 0 5 3 l s s 2 s s s s 3 9 5 s 2 2 2 2 2 j - 2 2 - s = 7 q 8 = 0 3 - 3 8 - - 2 - - 2 - - - - - - - - - - ",
"2 5 k 4 k 2 0 : 3 - j 6 9 5 3 j s - 2 - - - - = 7 - 3 - 2 - 2 - 8 3 - - - - 3 7 ; 9 - 8 3 - = 8 - - - - - - - - * - - * - * * - ",
"2 2 e : 8 2 1 f s - j 3 9 3 = 8 2 - - - - - - 5 < = - - 2 - - - 8 = * - - = = % % < = 1 = = = 1 * * * * * * * * * * * * & * * * ",
"= 3 7 ; 9 - 1 3 - * 8 3 1 = = 8 - - - * - - * = < * * * - * * * 1 * * * * * * > ; > * 1 & * & 1 * * * * * * * & & * * * + * & & ",
"- = % = , = , = = * 1 = % = * 1 * * * * * * * & % * * * * * * & 1 & * * * & & $ % # * # & & & > + & + & + & + & & + & + + & + + ",
"* * $ % , * , & * & 1 & > & & , * & * * & & * & $ & * & & & & & > & & * & & @ $ @ # @ # @ @ @ # + + + + + + + + + + + + + + + + ",
"* & $ @ # & # & * & # @ $ @ @ # & + + & + & + + # o + + + + + + O o @ o o @ @ X o O o O o o o O + + + o o o o o o o . o . o . o ",
"@ @ @ o O & O o & o O o X @ @ O o o + o o o o o X o o o o o o o X . o o o o o X X X . X . . . X . . . . . . . . . . .   . .     ",
"o o O X X o X X o o X X X o X X o . o . o o o . X . . o . . . . X . .   . .                                                     ",
"o . X . X X     .   X             .       .                                                                                     ",
"                                                                                                                                "
};
