/* XPM */
static char *_4f844f6457c4e7ccac25c09e673a5f2LpIRidKoNqmgZhSE[] = {
/* columns rows colors chars-per-pixel */
"64 64 182 2 ",
"   c #020002",
".  c #080007",
"X  c #050409",
"o  c #0B010B",
"O  c #020B0C",
"+  c #10010F",
"@  c #1D080E",
"#  c #0F0411",
"$  c #050D11",
"%  c #0C0B15",
"&  c #0F0C18",
"*  c #140113",
"=  c #180117",
"-  c #150619",
";  c #1E031C",
":  c #130A1B",
">  c #19091F",
",  c #031214",
"<  c #06151A",
"1  c #0A141C",
"2  c #03191B",
"3  c #09181F",
"4  c #31140F",
"5  c #290A13",
"6  c #280814",
"7  c #21001F",
"8  c #2B061B",
"9  c #35091B",
"0  c #3C0D1B",
"q  c #341112",
"w  c #36111E",
"e  c #1E0521",
"r  c #170B21",
"t  c #1C0B24",
"y  c #1E0E2A",
"u  c #051E21",
"i  c #0B1A23",
"p  c #0D1A25",
"a  c #151325",
"s  c #191027",
"d  c #131827",
"f  c #16162A",
"g  c #1C132C",
"h  c #141A2A",
"j  c #18192D",
"k  c #1D1631",
"l  c #161E31",
"z  c #1B1C33",
"x  c #240022",
"c  c #280026",
"v  c #270529",
"b  c #210C2A",
"n  c #310423",
"m  c #3E0625",
"M  c #3B062E",
"N  c #20112E",
"B  c #2F0431",
"V  c #320936",
"C  c #251933",
"Z  c #042325",
"A  c #082127",
"S  c #06262A",
"D  c #0B232B",
"F  c #052A2D",
"G  c #09282F",
"H  c #10212E",
"J  c #0F2532",
"K  c #062E31",
"L  c #0B2B33",
"P  c #132333",
"I  c #1A2037",
"U  c #122837",
"Y  c #17273A",
"T  c #182338",
"R  c #132A39",
"E  c #053335",
"W  c #0A3137",
"Q  c #07363A",
"!  c #0A353B",
"~  c #043A3C",
"^  c #0A383E",
"/  c #400E1F",
"(  c #4F1719",
")  c #62171D",
"_  c #641D1B",
"`  c #4A220F",
"'  c #5D2C13",
"]  c #5D2319",
"[  c #612517",
"{  c #602C15",
"}  c #632419",
"|  c #69271E",
" . c #55132E",
".. c #650F2B",
"X. c #6C2821",
"o. c #0E3742",
"O. c #063E41",
"+. c #0C3C44",
"@. c #103441",
"#. c #113945",
"$. c #113D49",
"%. c #313F6E",
"&. c #352572",
"*. c #68197F",
"=. c #542274",
"-. c #054344",
";. c #054646",
":. c #0A4147",
">. c #07474A",
",. c #0C434B",
"<. c #054A4A",
"1. c #0A494F",
"2. c #074E51",
"3. c #0B4D53",
"4. c #114751",
"5. c #055252",
"6. c #055454",
"7. c #065455",
"8. c #095256",
"9. c #065758",
"0. c #0A545A",
"q. c #055B5B",
"w. c #065B5C",
"e. c #065D5D",
"r. c #075D5E",
"t. c #085B5D",
"y. c #095B5E",
"u. c #085D5F",
"i. c #0A5C61",
"p. c #066060",
"a. c #066363",
"s. c #076364",
"d. c #066565",
"f. c #086364",
"g. c #096366",
"h. c #066B6B",
"j. c #086A6C",
"k. c #1D6B65",
"l. c #1D756E",
"z. c #077171",
"x. c #077373",
"c. c #077575",
"v. c #25766B",
"b. c #8D2524",
"n. c #EC3C31",
"m. c #E6343A",
"M. c #BD4225",
"N. c #BA5A21",
"B. c #C44327",
"V. c #D74C28",
"C. c #C65226",
"Z. c #D15726",
"A. c #EA402B",
"S. c #F0422B",
"D. c #F54B2B",
"F. c #FA532B",
"G. c #FF5C2B",
"H. c #CD6324",
"J. c #FF642A",
"K. c #FF6D29",
"L. c #E87324",
"P. c #FF7F27",
"I. c #FF7529",
"U. c #951D5F",
"Y. c #B42472",
"T. c #B82573",
"R. c #AE3A73",
"E. c #C52440",
"W. c #D82745",
"Q. c #DE2846",
"!. c #E22E40",
"~. c #F22C4E",
"^. c #F13540",
"/. c #C02669",
"(. c #382D85",
"). c #4B188A",
"_. c #7A1E98",
"`. c #531EA4",
"'. c #7D2EAA",
"]. c #9926A9",
"[. c #8E28B5",
"{. c #9127B9",
/* pixels */
"; ; 7 ; ; 7 ; t e ; 7 6 e ; ; ; e ; ; ; e 7 7 ; > 6 e ; ; > 7 ; ; ; 7 ; ; e ; ; ; ; 7 6 e ; ; ; e 7 7 6 7 7 6 ; ; x ; 7 > e ; ; ",
"7 ; 7 ; ; ; ; 6 ; ; > 7 ; ; x ; 6 7 ; ; 6 ; ; ; 7 7 ; ; 7 e 6 e e ; ; ; 6 t ; ; e ; > 7 ; ; ; ; > j - > r 7 > ; 7 > 7 ; 7 6 ; ; ",
"; ; ; > ; ; 7 7 ; ; ; ; e ; > 7 7 > ; ; t ; ; 7 6 7 ; ; ; ; e 6 7 > 6 ; ; ; e 7 ; ; 7 > ; 7 > e s 7.  * ; ; ; ; > ; e ; ; 6 ; ; ",
"; e 6 7 ; t 6 > e 7 7 ; ; ; 6 > ; e ; ; ; ; e ; ; > 7 t ; ; ; 7 ; 7 e ; 7 7 ; ; e 6 7 ; e ; 7 6 s 7.  * 7 ; ; ; 6 ; ; 7 ; 7 > b ",
"; e ; 7 O 7 ; ; 7 > ; ; 7 7 > 7 ; 7 > e ; ; ; ; ; ; ; ; ; ; 7 > ; e > 7 > e ; ; ; ; 7 7 ; ; e 6 s 6.  * > 7 ; ; ; e ; ; ; ; ; 7 ",
"; 7 ; ; X 7 ; x > x ; ; ; ; e 6 e ; 7 6 7 e ; t ; ; ; e > x ; ; ; 6 7 ; 7 6 ; ; ; e ; ; ; ; ;   O x.z.x.x.; 6 7 ; t 6 7 ; ; ; ; ",
"; 7 6 ; X ; ; ; 6 ; ; ; > 7 ; ; ; ; 7 7 ; ; ; 6 e ; 7 6 7 ; ; 7 ; ; 7 ; ; 6 ; x ; ; ; 7 e ; 7   O 6.      ; ; > ; ; ; ; ; t 7 > ",
"7 > ; e   6 ; ; e ; e 6 7 e ; ; ; e 6 > ; 7 ; 7 7 ; > 7 > 6 e ; 7 e ; 7 - > 7 > t 6 ; ; ; 7 7   O 6.      ; ; 7 x ; ; ; ; 6 7 7 ",
"6 7 ; 7 X ; > 7 ; 7 ; ; t t ; ; ; 7 > e ; ; ; e ; ; ; e ; t 7 > > e ; ; o 7 7 e ; ; ; e ; 7 ;   O 6.      ; 7 > ; ; ; ; ; 7 7 6 ",
"e > 7 o   X 6 ; ; ; ; ; 7 6 ; ; ; ; 7 6 e ; ; ; x ; ; t ; 6 7 7 7 6 ; ; . u.6 ; ; ; ; 7 ; ; ; w.O 7.      e 6 7 ; ; ; ; 7 > ; t ",
"; ; ; o p.  7 ; 7 7 7 ; ; 7 ; ; ; e 7 > ; 7 6 ; ; ; ; 6 ; ; ; ; 6 > ; ;   x.  ; > 6 ; 7 ; ; 7   O 6.      > ; ; ; 7 7 ; ; 7 ; ; ",
"e ; ; o O   ; ; ; > 6 e ; ; 7 ; ; e 6 7 7 > e ; ; ; ; 7 ; ; ; e ; 7 > x   x.    a t 7 ; ; t 6 e.O 6.      7 7 ; 7 > 6 t ; ; ; ; ",
"; 7 6 X O.  ; ; e 6 7 ; 7 6 e ; ; ; ; ; 6 > ; 7 ; 7 7 6 7 > 7 ; ; e ; ;   x.  2 e.d ; 7 > 6 ; S O 6.      ; ; ; 7 > ; 7 6 ; ; ; ",
"7 > x X     ; ; ; 7 > e > 7 ; ; ; ; 7 ; e 7 ; 7 7 > ; t ; ; 6 e 7 ; ; x   x.  2 p.2 ; ; ; e 7 h.O 5.      6 ; ; > x ; ; t e e ; ",
"7 > 7 o     ; ; ; ; ; ; 6 7 e ; 6 t 7 ; ; ;   . . . X . o 7 6 7 ; > 7 ; . x.  2 e.2   7 ; ; x Z O 6.      > ; 7 6 ; ; ; > 7 7 ; ",
"7 -         O 7 e ; ; ; e > 7 ; 7 7 > ; ; ; 2 7.,     q.o ; ; > ; 7 6 3.h.c.h.h.x.h.h.h.4.; ;   O 6.      7 ; e ; ; ; e 6 ; ; 7 ",
"6 -           ; 7 7 ; 6 ; ; 7 > 7 6 ; ; ; ; 2 q.2     s.. ; ; 7 7 ; ; o     2 e.2 e.  a.X ; 7 . O 6.      ; > > 6 ; 7 ; ; 7 6 e ",
"- *         . ; - ; > 7 ; ; ; ; ; ; 6 7 - - , -.,     ;.. - - ; ; e ; o     2 e.2 e.  d.o ; 5   O 6.      ; 7 7 ; ; ; ; 7 > ; ; ",
"; *           > > 6 > 7 > ; ; ; - ; ; =                       = ; ; 5 X     2 e.2 q.  d.X 7 =   O 6.      ; ; ; ; ; ; ; > > ; ; ",
"= .           + = = ; - ; - = ; ; ; = >   -., E , E   ~ 2 ;., = > ; - o     2 e.2 q.. a.X 7 7   O 6.      ; ; ; ; ; ; ; 7 ; ; ; ",
"*               # > = 6 = ; = 6 = ; 6 =   , <.2 ;.u 5.2 ~ , X = = > = o     2 e.2 q.  d.o - ; . O 6.      - ; ; > = = ; = ; - ; ",
"-             X * = = = = - - > = - - >                       ; ; = 6 o     2 e., q.  d.. ; >   O 6.      =   . = ; ; ; 6 > ; ; ",
"O <.2 2 5.2 S -., * = = = = = = = > = = .   2 p.2 q.X d.      - > = = o     2 e.2 q.O d.o ; ;   O 7.      =   . + = - ; - 6 - ; ",
"  Z c.d.Z u.q.  X @ = = = ; > - = = = = .   2 p.2 q.X p.      = = - = o     2 e.2 e.  p.. ; = . O 6.      ;       @ ; ; - = ; = ",
"  Z x.Q 7.3 e.    * = = = = = @ = = = @ .   2 p.2 e.. d.      = = = = O .   2 u.2 w.X a.. 7 - . O 9..   . =       - = = = = 6 - ",
"  A c.S d.  e.. . + = = = = - = = = = > . . 2 p.< e.. d..   . N.H.H.H.` .   2 u.< u.X p.o - = . O 9.      - u.1., * ; = > = - ; ",
"  A c.S d.. e..   - = = = = = = = - = ; o   2 i.2 u.. d.  . . L.v.P.P.'   . 3 u.< w.X g.o = = . & 8.  . . ; q.  . . = = = = = = ",
". S c.G d.o e.. . @ = = = - = = - ; 6 w o o i e.3 q.o d.. . . L.v.P.P.' . . 3 p.p i.X a.+ ; ; . O 9.. o . - x.8.1 . = = = = ; ; ",
"o A x.G f.o y.o . - = = ; = > 7 8 X.X.H.4 . i e.3 e.o f.o o o L.l.P.P.' o o 3 p.3 q.o a.5 | 9 o % 8.o . o ; u.. o o o o . o = ; ",
"o D x.G d.# e.o . = - = > 7 7 ; n K.K.P.q o i e.3 u.o d.o o o L.l.P.P.{ o o i u.p w.X a.' K.] o & 8.o o o - u.o o o o o o o = = ",
"o A c.G d.# e.o o = = ; 6 ; ; ; C.K.K.K.q o p i.p w.o d.o o o L.l.P.P.{ o o i u.p w.o a.] K.Z.@ & 8.o o o 7 h.8.8.9.9.9.^ o = ; ",
"+ H c.U d.* u.+ * = ; 7 ; ; ; V.J.K.K.K.q o p i.d e.* & + + + k.l.I.K.{ + + d u.p u.* a.[ K.J.6 & 9.+ + o ; & & & & : % # + = ; ",
"= D c.P p.- y.o * - ; ; 8 9 B.J.G.G.G.J.q # p f.p 8.* : J j.h.: l.K.K.} * o p f.p i.* s._ G.G.6 : 0.# + * ; + * * * * * o o ; ; ",
"* D c.U f.= i.* * > ; 8 b.S.S.D.G.G.G.G.0 = d i.d * D x.o.* * * l.M.M.( = * d i.d 0.- s._ F.F.8 : 0.* * * ; D h h D D D d = ; 7 ",
"= H c.R f.- y.= * ; ; m S.S.S.S.G.G.G.G.0 * h i.d = c.f.= * * = h.* = * = = d i.d i.- d.) S.S.6 > 0.* = * x c.c.c.c.c.c.3.= ; 7 ",
"= P c.R f.- y.= = ; ; 0 S.S.S.S.D.D.G.G.0 = h i.f +.U P = = = = h.f 3.h = - j i.f i.- s.) S.S.6 > 0.* = = 7 U U R R U U h = ; 7 ",
"= P c.Y f.> i.; = ; = E.m.S.S.S.S.S.D.S.0 = f i.f t - = = ; = = j.> r > = = f i.f w.; i.) S.^.8 > 8.= = = 7 = = - - = - = = ; x ",
"; l x.Y i.e i.7 ; 7 8 W.W.W.W.n.A.S.S.S.0 ; k 0.g = ; ; = ; ; ; f.l j.Y = ; j 0.s 0.; i...~.~.c > 3.; = = 7 f 8.s 3.; 0.= ; ; x ",
"; l h.Y i.e 0.; 7 ; Y.> t 7 7 g c m.n.n./ ; g $.y ; ; ; ; ; ; ; i.e f e ; ; f 0.j 0.; y. .E.R.C P 3.; ; ; 7 ; ; ; = ; ; ; = x x ",
"x z h.T 0.x 0.7 7 V Y.t $.j g 3.n Q.Q.Q.m e ; ; ; 7 ; 7 7 ; 7 7 i.f 3.z ; e j 3.s 3.e 0.I y.3.3.8.,.; 7 7 M ; s e b ; t ; ; ; x ",
"x l h.T 0.x 8.x x *.Y.x R 8.8.z n Q.m.Q.m e 7 7 x 7 ; ; ; 7 ; 7 w.e j e 7 7 j 3.s 3.e 3.e g j g z ,.7 ; ; U.s $.> $.; $.; ; x x ",
"v z p.I 0.e 3.x x _.].b #.k k ,.n /./.T.M x y 3.,.g x x x x x 7 7.x x x 7 7 g 1.g 1.e 3.; 7 @.e e ,.7 7 ; ].x b e g e y ; x 7 x ",
"x z w.I 3.x 1.x x ).{.b $.x x 7.n T.T.T.M 0.,.k 1.g x x x 7 x 7 5.x x 7 x x g 1.g 1.x 1.7 x x x e +.7 7 7 [.7 7 e ; 7 ; 7 7 x x ",
"x z 0.z 1.c 1.x v ).`.b #.c x 2.B {.'.%.1.x c g ,.g x x x x x x 1.x x x x x g :.y +.x >.x x ! x x +.x 7 x `.x 7 x x x 7 x 7 x x ",
"c k 7.z >.c :.c c &.(.b @.x x 1.B =.@.g x x x g :.N x x c x c x <.x x x x x g +.g +.x -.x x x j I +.j j h (.7 x x 7 7 x x 7 x x ",
"c k 5.z :.v +.c c +.5.b @.c c <.x c c c c x c b +.g c c x x x x -.x x c x x b +.y o.v +.x x x -.<.<.<.<.<.-.7 x x x x x 7 x x x ",
"c k <.z :.c +.c c g 1.b ! c c -.x c x c c x c g +.b c x c x c x :.x x x c 7 b ^ y ! v ~ x x x :.g j s j g g x 7 7 x x 7 x x x x ",
"c k ;.z +.v o.c c c ;.b R c c +.c c c c c c c b ^ b x c x c x c O.c x c x c g ! y ! v Q x x x ~ x J x U b ! x x x x x x 7 x x x ",
"c N -.z ^ v ! c c c O.b J c c ~ c c x c c c x b W b c x c x c x ^ x x c x x y W y W c Q x x x Q e J x J t E x 7 x x 7 x x x 7 x ",
"c N ~ g ! c W c c c Q b U c c Q c c c x c x x b L N x c x c x c E x x x x x y L e K x K x x x E v t x t x t x x 7 x x x 7 x 7 x ",
"c g ~ j W c L c c c Q b J c c Q c x x c x c c b L y x c x x x x E c x x x x t L t L x K x x x F x G x D e E x 7 x 7 x 7 7 x 7 x ",
"c g Q g W c L c c c E t D c x E c x c x x x x t L t x x x x x x K x x x x x t G e G x G 7 x x K x t x t x s 7 7 7 7 7 7 7 7 7 7 ",
"c t E a G v G x c x K k D v x G x x x x x x x t G e 7 x x 7 x x S x x x x x t G t D x S x 7 7 S ; e 7 7 7 7 7 7 7 7 ; ; ; ; ; ; ",
"x t K a S x D x x x F y h x 7 S x x x 7 x x x e Z t x x 7 x 7 7 S 7 ; 7 ; e > 2 e Z ; Z ; 7 ; Z ; 7 ; 7 7 ; ; ; ; ; ; ; ; ; ; ; ",
"x t S a Z x A x e x Z t i x x Z x 7 7 x ; 7 7 > i e ; 7 ; ; ; ; u ; ; ; ; ; > i = Z ; 2 ; ; ; u ; ; ; ; ; ; ; ; ; = ; ; = ; ; = ",
"x t Z > i e u 7 7 ; Z e i ; ; Z ; ; ; ; ; ; ; > 2 > ; ; ; ; ; ; 2 ; ; ; ; ; - 2 - p 7 2 ; = = 2 = = = = = = = = = = = = = = = = ",
"; > Z r u e < ; ; ; 2 r i ; ; u ; ; = ; ; ; ; - < - ; ; = ; ; = 2 ; = = = = > < - < = < = = = 2 = = = = = = = = = = = = * = * = ",
"; : 2 : < ; < ; ; ; 2 > 1 = ; 2 ; = ; = = = = - < - = = = = = = , - = = = = - , - < = , = = = , = * * * * * * = * * * * * * * * ",
"= - 2 & < - < = = = , - $ = = , = * = = = * = - , - = * = * = * , = * * * * * $ # , * , o = * , + + + * o * * + o * + + + + o + ",
"= # , # $ * $ = * * , # $ * * $ * + + * + * + o O o + + + + o * $ o o * o # o O o O o O o o . O + o o o o o o o o o . o o o o . ",
"# # O # O * O # * o O # X * o O + o + + + o o o O X o o . o o o X o o . . . . X X X . X . o   X . . . .   . . . . .         .   ",
"o o O X O o X o o o O X O o . X o o . o . . o .   o . o . . . . X . .   . .   X       X           .                             ",
"o . O . O . X . . . X   X   . X   . .   .       X   .                                                                           ",
"                                                                                                                                "
};
