/* XPM */
static char *c4fda530db1440fad0fff8a05c905e73uZr0WqnqSHq3eJfQ[] = {
/* columns rows colors chars-per-pixel */
"64 64 181 2 ",
"   c #010101",
".  c gray1",
"X  c #070106",
"o  c #040404",
"O  c #0C010B",
"+  c #090909",
"@  c #0B0B0B",
"#  c #0C0C0C",
"$  c gray6",
"%  c #031708",
"&  c #041D0B",
"*  c #140313",
"=  c #180317",
"-  c #190318",
";  c #1A0318",
":  c #1E041C",
">  c #1F041D",
",  c gray8",
"<  c #181718",
"1  c #181818",
"2  c #1A191A",
"3  c #1B1A1B",
"4  c #1C1B1B",
"5  c #191C1A",
"6  c #191F1B",
"7  c #1C1B1C",
"8  c #1E1D1E",
"9  c #152319",
"0  c #19201B",
"q  c #18241B",
"w  c #18261C",
"e  c #17281C",
"r  c #172A1C",
"t  c #073213",
"y  c #1B2E21",
"u  c #1B3122",
"i  c #1F3324",
"p  c #1E3525",
"a  c #1B3923",
"s  c #222122",
"d  c #222222",
"f  c #232323",
"g  c gray14",
"h  c #252425",
"j  c #242725",
"k  c #232824",
"l  c #222A24",
"z  c gray17",
"x  c #2F2F2F",
"c  c #243128",
"v  c #233629",
"b  c #2D302E",
"n  c #2D3B31",
"m  c #2B3E30",
"M  c gray19",
"N  c #303331",
"B  c #323232",
"V  c gray20",
"C  c #323433",
"Z  c #343434",
"A  c #373737",
"S  c #313B34",
"D  c #393839",
"F  c #3E3E3E",
"G  c #3F3F3F",
"H  c #154A23",
"J  c #144F24",
"K  c #0F5322",
"L  c #0F5522",
"P  c #0E5922",
"I  c #135124",
"U  c #155125",
"Y  c #115824",
"T  c #105C24",
"R  c #175929",
"E  c #155D29",
"W  c #23422C",
"Q  c #26452E",
"!  c #26472F",
"~  c #22482E",
"^  c #214D2D",
"/  c #234C2F",
"(  c #225D33",
")  c #2C5A39",
"_  c #2C5C3A",
"`  c #2D5E3C",
"'  c #0D6224",
"]  c #0C6424",
"[  c #0C6624",
"{  c #0D6825",
"}  c #15662B",
"|  c #0F7A2C",
" . c #10752C",
".. c #10792D",
"X. c #127A2F",
"o. c #2B613B",
"O. c #207639",
"+. c gray26",
"@. c #444444",
"#. c #484848",
"$. c gray29",
"%. c #475F4E",
"&. c #515151",
"*. c gray32",
"=. c #555555",
"-. c gray35",
";. c #5A5A5A",
":. c gray36",
">. c #5D5D5D",
",. c gray37",
"<. c #5B6A5F",
"1. c #57745F",
"2. c #56765F",
"3. c #5D6B61",
"4. c #5B6D60",
"5. c gray38",
"6. c #646464",
"7. c gray40",
"8. c #616A64",
"9. c #686868",
"0. c DimGray",
"q. c #6C6C6C",
"w. c gray43",
"e. c #647268",
"r. c #717171",
"t. c #767676",
"y. c #7B7B7B",
"u. c gray49",
"i. c gray50",
"p. c #10802E",
"a. c #148032",
"s. c #148935",
"d. c #1C8639",
"f. c #178C38",
"g. c #19943C",
"h. c #1C9C41",
"j. c #1D9C42",
"k. c #229544",
"l. c #1DA043",
"z. c #1EA144",
"x. c #1FA546",
"c. c #1FAB47",
"v. c #1DAE46",
"b. c #20A345",
"n. c #20AA48",
"m. c #21AC49",
"M. c #21AF4B",
"N. c #22B14C",
"B. c #21B94E",
"V. c #21BD4E",
"C. c #518760",
"Z. c #7C827E",
"A. c #78867C",
"S. c #76897B",
"D. c #659271",
"F. c #6B9476",
"G. c #649B74",
"H. c #50AD6A",
"J. c #4CB068",
"K. c #4DB46A",
"L. c #19C248",
"P. c #1ACC4C",
"I. c #1BCE4D",
"U. c #1BD14E",
"Y. c #1FD352",
"T. c #1FD753",
"R. c #1FD953",
"E. c #1FDA54",
"W. c #1EDE54",
"Q. c #29C455",
"!. c #20C850",
"~. c #20C950",
"^. c #2ECA5A",
"/. c #20D152",
"(. c #20D252",
"). c #31D15E",
"_. c #1EE456",
"`. c #1EE656",
"'. c #3FC364",
"]. c #8E0284",
"[. c #98028E",
/* pixels */
"[.].].].].].].].].].].].].].].].].].].].].].].].].].].].].].].].[.].].].].].].].].].].].].].].].].].].].].].].].].].].].].].].].",
"].> > > > > > > > > > > > > > > > > > > > > > > > > > > > > > > ].> > > > > > > > > > > > > > > > > > > > > > > > > > > > > > > ",
"].> > > > > > > > > > > > > > > > > > > > > > > > > > > > > > > ].> > > > > > > > > > > > > > > > > > > > > > > > > > > > > > > ",
"].> > > > > > > > > > > > > > > > > > > > > > > > > > > > > > > ].> > > > > > > > > > > > > > > > > > > > > > > > > > > > > > > ",
"].> > > > > > > > > > > > > > > > > > > > > > > > > > > > > > > ].> > > > > > > > > > > > > > > > > > > > > > > > > > > > > > > ",
"].> > > > > > > > > > > > > > > > > > > > > > > > > > > > > > > ].> > > > > > > > > > > > > > > > > > > > > > > > > > > > > > > ",
"].> > > > > > > > > > > > > > > > > > > > > > > > > > > > > > > ].> > > > > > > > > > > > > > > > > > > > > > > > > > > > > > > ",
"].> > > > > > > > > > > > > > > > > > > > > > > > > > > > > > > ].> > > > > > > > > > > > > > > > > > > > > > > > > > > > > > > ",
"].> > > > > > > > > > > > > > > > > > > > > > > > > : : > > > > ].> > > > > > > > > > > > > > > > > > > > > > > > > > > > > > > ",
"].> > > > > > > > > > > > > > > > > > > > > > > > > : : > > > > ].> > > > > > > > > > > > > > > > > > > > > > > > > > > > > > > ",
"].> > > > > > > > > > > > > > > > > > > > > > > > X                             ; > > > > > > > > > > > > > > > > > > > > > > > ",
"].> > > > > > > > > > > > > > > > > > > > ; * . # $ ;.,.,.,.,.6.6.8.2.3.1.1.%.$ $ o - > > > > > > > > > > > > > > > > > > > > > ",
"].> > > > > > > > > > > > > > > > > > > >   g D ,.:.;.-.;.;.;.0.Z.J.Y.!.T.Y.Q.C.e.B d . > > > > > > > > > > > > > > > > > > > > ",
"].> > > > > > > > > > > > > > > > > > > > . 0.i.i.*.u.i.i.i.i.$.S.(.N.T.B.M.V.).F.0.5.o > > > > > > > > > > > > > > > > > > > > ",
"].> > > > > > > > > > > > > > > > > > > >   z 0.0.:.=.=.=.=.=.q.Z.H.E.!.Y.T.^.D.e.6.8 o > > > > > > > > > > > > > > > > > > > > ",
"].> > > > > > > > > > > > > > > > > > > >   , + + + :.,.,.,.,.6.7.8.3.<.4.4.3.&.7 +     > > > > > > > > > > > > > > > > > > > > ",
"].> > > > > > > > > > > > > > > > > > > >   2 2 4 2 . o o . . .         o       .     . > > > > > > > > > > > > > > > > > > > > ",
"].> > > > > > > > > > > > > > > > > > > >   8 d d j 7 g f f g g 8 8 8 7 2 2 2 2 < #   . > > > > > > > > > > > > > > > > > > > > ",
"].> > > > > > > > > > > > > > > > > > > >   d 7 d B g g f g g g g g g 8 2 2 2 2 7 7   . > > > > > > > > > > > > > > > > > > > > ",
"].> > > > > > > > > > > > > > > > > > > >   z d z B g g k f g g g g g d 7 2 2 2 7 < . . > > > > > > > > > > > > > > > > > > > > ",
"].> > > > > > > > > > > > > > > > > > > >   Z B B V B x j g d j g g g g 4 2 2 2 < 7   . > > > > > > > > > > > > > > > > > > > > ",
"].> > > > > > > > > > > > > > > > > > > >   Z B V C B B d g d d g g g g 7 2 2 2 < 7 . . > > > > > > > > > > > > > > > > > > > > ",
"].> > > > > > > > > > > > > > > > > > > >   B Z C B B B c c p j g g g g 7 2 2 2 7 0 % . > > > > > > > > > > > > > > > > > > > > ",
"].> > > > > > > > > > > > > > > > > > > >   Z B B B m ! | p.X.~ g g u c e e 5 e w Y  .. > > > > > > > > > > > > > > > > > > > > ",
"].> > > > > > > > > > > > > > > > > > > >   Z Z B Z R } v.P.v.k.g p Y Y L L w L L ' l.. > > > > > > > > > > > > > > > > > > > > ",
"].> > > > > > > > > > > > > > > > > > > > o Z B Z B m ! f.!.(.(.Y T [ f.l.l.P [ [ g.E.. > > > > > > > > > > > > > > > > > > > > ",
"].> > > > > > > > > > > > > > > > > > > >   Z B B Z C n a.N.T.`.k a [ [ U.W.5 r Y l._.. > > > > > > > > > > > > > > > > > > > > ",
"].> > > > > > > > > > > > > > > > > > > >   B Z Z B B n X.N.T.c.g i [ g.W.l.2 r T k._.. > > > > > > > > > > > > > > > > > > > > ",
"].> > > > > > > > > > > > > > > > > > > >   Z B B Z Z n a.N.R.E k a [ [ U.' 2 r K f.Y.. > > > > > > > > > > > > > > > > > > > > ",
"].> > > > > > > > > > > > > > > > > > > >   B Z Z B B n a.N.R.v g i [ [ U.[ 2 w Y [ m.. > > > > > > > > > > > > > > > > > > > > ",
"].> > > > > > > > > > > > > > > > > > > >   Z B B Z B n a.N.(.v g i [ [ U.[ 2 r Y [ m.X > > > > > > > > > > > > > > > > > > > > ",
"].> > > > > > > > > > > > > > > > > > > > o Z Z Z B Z C o.N.E.v k k k I U.0 2 2 6 Y m.. > > > > > > > > > > > > > > > > > > > > ",
"[.].].].].].].].].].].].].].].].].].].].].  Z Z B Z B Z _ m.T.v d g g J P.2 2 2 2 L c.= ].].].].].].].].].].].].].].].].].].].].",
"].> > > > > > > > > > > > > > > > > > > : . M Z Z B Z B Q [ L.v g g g J b.2 2 2 7 K | . : : > > > > > > > > > > > > > > > > > > ",
"].> > > > > > > > > > > > > > > > > > > : . Z M B Z Z Z Q [ L.v g g g I b.2 2 2 7 J M.. : > > > > > > > > > > > > > > > > > > > ",
"].> > > > > > > > > > > > > > > > > > : : . Z Z Z B Z Z W [ L.v g g g d.s.2 2 2 < Y M.. > > > > > > > > > > > > > > > > > > > > ",
"].> > > > > > > > > > > > > > > > > > > > . Z M B Z B Z Q [ L.v d j j b.| 2 2 2 2 L m.. > > > > > > > > > > > > > > > > > > > > ",
"].> > > > > > > > > > > > > > > > > > > : . Z Z Z B Z B Q { j.c d j j b.a 2 2 2 2 K [ . > > > > > > > > > > > > > > > > > > > > ",
"].> > > > > > > > > > > > > > > > > > > > . @.+.+.A B Z _ j.c.c j g g O.u 2 2 2 2 2 k.. > > > > > > > > > > > > > > > > > > > > ",
"].> > > > > > > > > > > > > > > > > > > > o i.i.i.+.Z B Q [ j.c g g g O.u 2 2 2 2 7 [ X > > > > > > > > > > > > > > > > > > > > ",
"].> > > > > > > > > > > > > > > > > > > > . i.i.i.+.Z Z Q ] j.c g g g R w 2 2 2 2 2 [ . > > > > > > > > > > > > > > > > > > > > ",
"].> > > > > > > > > > > > > > > > > > > > . *.i.i.@.Z Z _ j.( j g g g O.y 2 2 2 2 2 ' . > > > > > > > > > > > > > > > > > > > > ",
"].> > > > > > > > > > > > > > > > > > > : . Z @.w.@.Z Z ` N./ j g g g U w 2 2 2 2 2 ' . > > > > > > > > > > > > > > > > > > > > ",
"].> > > > > > > > > > > > > > > > > > > : . @.i.i.+.B N _ l.~ g g g g J 0 2 2 2 2 7 ' . > > > > > > > > > > > > > > > > > > > > ",
"].> > > > > > > > > > > > > > > > > > > > . +.i.i.@.Z Z Q [ i f g g g J 0 7 2 2 2 2 ' . > > > > > > > > > > > > > > > > > > > > ",
"].> > > > > > > > > > > > > > > > > > > > . @.i.i.@.Z Z Q [ p j g g g J q 7 2 2 2 2 ' X > > > > > > > > > > > > > > > > > > > > ",
"].> > > > > > > > > > > > > > > > > > > : . @.i.i.+.Z Z Q [ i f g g g J q < 2 2 2 2 & . > > > > > > > > > > > > > > > > > > > > ",
"].> > > > > > > > > > > > > > > > > > > : . @.i.i.+.Z N b k j f g g g U w 7 2 2 2 2   . > > > > > > > > > > > > > > > > > > > > ",
"].> > > > > > > > > > > > > > > > > > > > . Z #.r.@.Z Z x j f f f j j H q 7 < 7 < 7   X > > > > > > > > > > > > > > > > > > > > ",
"].> > > > > > > > > > > > > > > > > > > > . G w.y.+.Z Z G G G G G G G A Z D Z S ^ 6   . > > > > > > > > > > > > > > > > > > > > ",
"].> > > > > > > > > > > > > > > > > > > > . Z +.r.+.Z G i.i.i.i.i.i.i.i.i.i.u.F.).t   . > > > > > > > > > > > > > > > > > > > > ",
"].> > > > > > > > > > > > > > > > > > > > . F 7.y.+.Z G i.i.H.'.'.'.'.'.'.'.K.A.G.9 . . > > > > > > > > > > > > > > > > > > > > ",
"].> > > > > > > > > > > > > > > > > > > : . t.i.i.@.Z g Z Z m W i a a a a a v f < .   . > > > > > > > > > > > > > > > > > > > > ",
"].> > > > > > > > > > > > > > > > > > > > : ; . . 7 g g f f 7 < < 7 < < < < .       : : > > > > > > > > > > > > > > > > > > > > ",
"].> > > > > > > > > > > > > > > > > > > > > > > : O X X . X X X > X . . X X X O ; > > > > > > > > > > > > > > > > > > > > > > > ",
"].> > > > > > > > > > > > > > > > > > > > > > > : > > > > > > > ].> > : > > > > : > > > > > > > > > > > > > > > > > > > > > > > ",
"].> > > > > > > > > > > > > > > > > > > > > > > > > > > > > > > ].> > > > > > > > > > > > > > > > > > > > > > > > > > > > > > > ",
"].> > > > > > > > > > > > > > > > > > > > > > > > > > > > > > > ].> > > > > > > > > > > > > > > > > > > > > > > > > > > > > > > ",
"].> > > > > > > > > > > > > > > > > > > > > > > > > > > > > > > ].> > > > > > > > > > > > > > > > > > > > > > > > > > > > > > > ",
"].> > > > > > > > > > > > > > > > > > > > > > > > > > > > > > > ].> > > > > > > > > > > > > > > > > > > > > > > > > > > > > > > ",
"].> > > > > > > > > > > > > > > > > > > > > > > > > > > > > > > ].> > > > > > > > > > > > > > > > > > > > > > > > > > > > > > > ",
"].> > > > > > > > > > > > > > > > > > > > > > > > > > > > > > > ].> > > > > > > > > > > > > > > > > > > > > > > > > > > > > > > ",
"].> > > > > > > > > > > > > > > > > > > > > > > > > > > > > > > ].> > > > > > > > > > > > > > > > > > > > > > > > > > > > > > > ",
"].> > > > > > > > > > > > > > > > > > > > > > > > > > > > > > > ].> > > > > > > > > > > > > > > > > > > > > > > > > > > > > > > "
};
