/* XPM */
static char *_6e4444d0cc645c8987165415f9bfd56kRXxJkmGUPDtJ6yb[] = {
/* columns rows colors chars-per-pixel */
"64 64 159 2 ",
"   c #1E041C",
".  c #22041E",
"X  c #1F0420",
"o  c #220423",
"O  c #290526",
"+  c #260429",
"@  c #29052D",
"#  c #2D082E",
"$  c #320924",
"%  c #3C0E25",
"&  c #31042B",
"*  c #320A2B",
"=  c #3A0B29",
"-  c #3F1223",
";  c #3F172C",
":  c #2D0533",
">  c #320431",
",  c #3B0534",
"<  c #3C0E36",
"1  c #33063B",
"2  c #3B063E",
"3  c #3E0E3A",
"4  c #410D29",
"5  c #441325",
"6  c #4A1927",
"7  c #40172C",
"8  c #41192C",
"9  c #561729",
"0  c #420539",
"q  c #48053E",
"w  c #510E34",
"e  c #4E1F30",
"r  c #601B2D",
"t  c #4E202E",
"y  c #51232D",
"u  c #592338",
"i  c #63293A",
"p  c #793839",
"a  c #360640",
"s  c #3A0745",
"d  c #3E074A",
"f  c #490643",
"g  c #40074C",
"h  c #42084E",
"j  c #431040",
"k  c #551B41",
"l  c #460853",
"z  c #490956",
"x  c #4C095C",
"c  c #5B075A",
"v  c #5D1655",
"b  c #671046",
"n  c #6D104B",
"m  c #651D52",
"M  c #642445",
"N  c #692547",
"B  c #752B4A",
"V  c #7D3543",
"C  c #6F2352",
"Z  c #7B2B51",
"A  c #732358",
"S  c #520963",
"D  c #590D64",
"F  c #570A6A",
"G  c #590B6C",
"H  c #5E0B72",
"J  c #6C0763",
"K  c #710768",
"L  c #67126E",
"P  c #711D62",
"I  c #620B77",
"U  c #650C7A",
"Y  c #680C7E",
"T  c #7B2165",
"R  c #C85A15",
"E  c #DC6412",
"W  c #D2771F",
"Q  c #D47C1C",
"!  c #DF7F18",
"~  c #FF770F",
"^  c #E06612",
"/  c #EA6C11",
"(  c #C74334",
")  c #D14735",
"_  c #D34835",
"`  c #E44E37",
"'  c #F65539",
"]  c #FA573A",
"[  c #C67520",
"{  c #D27620",
"}  c #87344D",
"|  c #822F52",
" . c #843250",
".. c #B43941",
"X. c #B72A5E",
"o. c #C33F45",
"O. c #CD3067",
"+. c #CE3068",
"@. c #D13169",
"#. c #E63773",
"$. c #F13977",
"%. c #F73B7A",
"&. c #CC4247",
"*. c #E84C4E",
"=. c #F55151",
"-. c #C9891C",
";. c #D5821B",
":. c #DA8319",
">. c #DA8B19",
",. c #D98C18",
"<. c #D5931B",
"1. c #DC9219",
"2. c #ED8E0F",
"3. c #FF9E04",
"4. c #F4940B",
"5. c #F79C0C",
"6. c #F99C09",
"7. c #E28117",
"8. c #E98612",
"9. c #E48A14",
"0. c #EC9E14",
"q. c #E29D19",
"w. c #FFA106",
"e. c #F7A40F",
"r. c #FFA509",
"t. c #FFA80B",
"y. c #FFA80C",
"u. c #FFAA0D",
"i. c #FFAE0F",
"p. c #EEA214",
"a. c #E3A119",
"s. c #E3A21A",
"d. c #EBA619",
"f. c #FBAC12",
"g. c #FFAE10",
"h. c #FFAF10",
"j. c #FFB111",
"k. c #FFB212",
"l. c #FFB213",
"z. c #FFB414",
"x. c #FFB715",
"c. c #FFB816",
"v. c #6A0C82",
"b. c #8F098F",
"n. c #960995",
"m. c #AE0A8F",
"M. c #B50A95",
"N. c #A40AA4",
"B. c #A90AA8",
"V. c #C70BA3",
"C. c #DD0DB5",
"Z. c #E50DBB",
"A. c #C20BC2",
"S. c #C90CC9",
"D. c #F00EC4",
"F. c #FC0FCD",
"G. c #E50DE5",
"H. c #EF0EEF",
"J. c #FA0FFA",
/* pixels */
"v.v.v.v.v.v.v.v.v.v.v.v.v.v.v.v.Y Y v.v.v.v.Y v.v.v.v.v.v.v.v.v.v.v.v.v.v.v.v.v.v.v.v.v.v.v.v.v.v.v.v.v.v.v.v.v.v.v.v.v.v.v.v.v.",
"Y Y Y Y v.v.U v.Y Y Y v.Y Y Y Y Y Y Y Y Y Y Y Y Y Y Y Y v.v.Y v.Y Y v.v.Y Y Y v.Y v.Y Y Y Y Y v.Y Y Y Y v.v.U v.Y Y Y v.Y Y Y Y ",
"U U U U U U U U U U U U U U U U U U U U Y U U U U U U U v.v.Y Y I Y Y v.U U U U U U U U U U U U U U U U U U U U U U U U U U U U ",
"I I I I I I I I I I I I I I I I U I I I I U I I U U Y P | P P | P P | K T I I U I U I I I I I I I I I I I I I I I I I I I I I I ",
"I H H H I H H H H H H H I H H H I I G I H H H L L L L ! 8.8.! 8.8.8.8.8.7.L L L L H H H H H H H I H H H H I H H H H H H I H H H ",
"H H H H G H H H H H H H H H H H G I I G H H P ! 3.3.3.3.3.3.3.3.3.3.3.3.3.3.3.3.7.T G H H H H H H G H H H H H H H H H H H H H H ",
"F F G G G G G G G G G G G G G G G G  .W 2.2.4.6.3.3.3.3.3.3.3.3.3.3.3.3.3.3.3.3.6.4.2.2.Q } L G G G G G G G G G G G G G G G G G ",
"F F F F F F G F F F F F F F F F S | { 4.3.3.3.3.3.3.3.3.3.3.3.3.3.3.3.3.3.3.3.3.3.3.3.3.6.{ } D F F F F S F G F F F F F F F F F ",
"F S S S S F S F S F F F S F D A Z W 4.3.3.3.3.3.3.w.w.3.w.3.w.w.3.3.3.3.w.w.w.w.w.3.w.3.3.6.W Z A D F F S F S G S F F S F F F F ",
"S S S S S S S S S S S S S S C W 9.6.w.w.3.w.w.w.w.3.w.w.w.w.3.w.3.3.3.3.w.w.w.w.w.w.w.w.w.w.6.9.:.C S S S S S S S S S F x S S x ",
"S S x S S S x S x S x S x C Q w.w.w.w.w.w.w.w.w.w.w.w.w.w.w.w.w.w.3.r.3.w.w.w.w.w.w.w.w.w.w.w.w.r.:.B x S S S x x S x S S S x S ",
"x x S x x x x x x x x v ;.5.w.w.w.w.w.w.w.w.w.w.w.w.w.w.w.w.r.w.w.r.w.r.w.w.w.w.w.r.w.w.r.w.r.r.r.w.5.:.m x x x x x x x x x x x ",
"z x x x z x x x x x z B 9.r.w.r.r.w.r.r.w.t.w.r.w.w.r.w.r.w.r.w.r.r.r.r.r.r.r.r.r.r.r.r.r.r.r.r.r.r.r.9.V x x x x z z x x x x x ",
"l z z l z z z z z z N Q e.w.r.w.r.w.w.r.w.w.t.w.w.r.r.t.r.r.r.r.r.r.r.r.r.r.r.r.r.r.r.r.r.r.r.r.r.r.r.r.;.M x z z z z z z z z z ",
"l l l l l l l l l N ;.r.r.r.r.r.r.r.t.w.t.t.w.t.w.t.t.w.w.r.r.r.r.r.r.r.r.r.r.r.r.r.r.r.r.r.r.r.r.r.r.r.r.:.M z l l l l l l l l ",
"l l l l l l l l M ;.r.r.t.t.r.r.t.r.t.r.t.t.t.t.t.t.t.t.t.t.t.t.r.r.y.t.r.y.y.t.t.t.y.t.r.y.i.t.y.t.y.r.y.h.;.M l l l l l l l l ",
"d d d l d d l M ;.y.y.i.r.y.t.y.t.y.i.t.y.t.i.t.y.y.i.y.y.y.t.i.y.t.y.y.y.y.y.y.y.y.y.y.y.y.y.y.i.i.y.y.i.y.y.>.N h g z h h g h ",
"l d d d d l h p ,.y.y.y.y.y.i.y.i.t.t.t.t.y.t.y.y.y.t.y.t.i.y.t.t.i.y.i.t.i.y.y.y.i.y.i.h.y.h.y.y.y.y.i.y.y.i.1.p j g g d d g g ",
"d d d d d d k [ e.y.y.y.y.y.y.y.y.t.y.t.t.t.y.t.y.i.y.i.y.t.i.y.y.i.y.y.y.i.y.i.i.y.y.y.y.y.y.g.i.y.i.y.y.i.y.e.[ k g d d d d d ",
"d d s d s s k ;.y.h.y.g.i.y.i.y.y.i.y.h.h.h.y.h.y.i.y.y.i.t.y.i.y.i.i.y.y.i.h.y.y.i.h.y.h.i.y.y.i.i.y.k.k.y.y.h.1.i d s s d s d ",
"s s s s s s u <.y.h.y.y.h.y.y.h.h.y.i.y.i.i.y.h.y.h.h.y.y.h.y.h.i.i.i.y.h.h.y.h.k.i.i.i.h.h.h.g.i.y.h.h.y.k.h.h.1.i s s s s s s ",
"a s s s s s 0.i.y.g.h.h.h.h.h.h.h.h.i.i.i.i.h.h.h.h.h.h.h.h.h.h.i.k.i.i.h.h.k.i.i.i.h.h.h.h.h.h.k.i.h.h.h.i.h.h.k.d.0 s s s s a ",
"1 a a a a e 0.i.g.g.g.g.h.h.h.h.h.h.h.h.h.h.h.h.h.h.h.h.h.h.h.h.h.i.k.i.h.h.h.h.h.h.h.h.h.h.h.k.k.k.h.h.h.h.k.k.k.p.u s 1 s 1 a ",
"1 1 1 a 2 ,.f.h.h.h.h.h.h.h.h.h.h.h.h.h.h.h.h.h.h.h.h.h.h.h.h.k.h.k.i.k.h.h.k.h.h.k.h.h.k.h.h.k.i.i.h.k.k.h.h.h.k.f.1.3 1 a 1 1 ",
"1 1 1 1 3 k.i.h.k.h.k.h.k.k.h.h.h.h.h.k.h.k.h.k.h.h.k.k.k.k.h.k.k.k.k.k.h.k.k.k.l.l.h.k.k.k.l.k.k.l.l.x.k.k.l.l.k.k.l.3 1 1 1 1 ",
"1 1 1 1 < k.k.k.k.h.k.k.k.l.k.k.z.k.k.k.k.k.l.k.k.k.l.k.k.k.k.k.k.k.k.k.k.k.k.k.l.l.l.k.k.l.x.l.l.l.l.l.l.x.l.l.x.k.l.< 1 1 : 1 ",
": 1 1 : < k.k.k.l.k.k.l.l.l.k.k.k.k.k.k.x.l.k.l.k.x.l.l.l.l.c.l.k.k.x.x.l.l.k.l.l.c.l.x.l.l.x.l.x.l.x.l.l.x.x.l.k.l.x.< 1 1 1 1 ",
": 1 : t <.k.k.x.l.l.x.l.l.l.k.x.l.x.l.x.l.x.l.l.l.l.l.x.x.l.l.x.x.k.l.l.x.x.l.x.l.c.x.l.x.l.l.x.x.l.l.x.l.l.c.l.l.x.l.q.y : : : ",
": : : t q.x.x.k.x.l.l.x.c.l.x.l.x.l.x.l.l.x.c.x.x.l.x.l.x.c.l.c.l.x.l.l.l.x.x.l.l.x.c.l.l.l.c.x.l.c.x.x.x.l.c.x.x.x.c.d.y : : : ",
": : : t q.x.x.x.l.x.l.x.x.c.x.x.x.x.c.l.c.c.c.l.c.c.c.l.c.c.c.l.c.c.c.x.c.c.c.c.c.x.c.c.c.c.c.l.c.c.c.c.c.c.c.c.c.c.c.d.t # : : ",
"@ : @ 8 -.q.q.a.a.s.s.q.s.s.s.q.a.s.s.q.s.s.s.q.s.s.s.q.s.q.s.s.s.s.s.s.s.s.s.s.s.s.s.s.s.s.s.s.s.s.s.s.s.q.s.s.a.s.a.<.t @ @ : ",
"@ # : @ ; ; ; ; ; ; ; ; ; ; ; 7 ; ; ; ; ; 7 ; ; ; ; ; ; ; ; 7 7 ; ; ; ; ; ; ; ; ; ; ; ; ; ; ; ; ; ; ; ; ; ; ; ; ; ; ; ; @ : @ @ ",
"@ @ + @ * * * * * * * * * * * $ * * * * * * * * * * * * * * * * * * * * * * * * * * * * * * * * * * * * * * * * * * = & @ @ @ @ ",
"+ + + 5 R ^ ^ E E ^ ^ ^ ^ ^ ^ E E ^ ^ ^ ^ ^ E E E ^ ^ ^ ^ ^ ^ E ^ E ^ ^ ^ ^ ^ ^ E E ^ ^ ^ ^ ^ ^ ^ ^ ^ ^ E E / E ^ E ^ R 5 @ + + ",
"+ + + 6 ^ ~ ~ ~ ~ ~ ~ ~ ~ ~ ~ ~ ~ ~ ~ ~ ~ ~ ~ ~ ~ ~ ~ ~ ~ ~ ~ ~ ~ ~ ~ ~ ~ ~ ~ ~ ~ ~ ~ ~ ~ ~ ~ ~ ~ ~ ~ ~ ~ ~ ~ ~ 2.~ ~ / 6 + + + ",
"+ + o ; R E E E E E E E E E E E E E E E E E E E E E E E E E E E E E E E E E E E E E E E E E E E E E E E E E E E ^ ^ E R 5 + + + ",
"o + o O ; - 5 5 5 5 - - 5 - 5 5 6 5 - - 5 5 5 6 5 5 5 5 5 5 - 5 - 6 - 6 5 5 - 5 5 5 5 5 5 5 5 5 5 5 6 5 - 5 6 - 5 5 5 - O o + o ",
"+ o + o X X o o o + o o + + o o o o o o o o o o o o o o + O . o o o o o o + o o o o o o o o o + o o o o o o + o o o o o o o o + ",
"o o o o $ ` ` ` ` ` ` ` ` ` ` ` ` ` ` ` ` ` ` ` ` ` ` ` ` ` ` ` ` ` ` ` ` ` ` ` ` ` ` ` ` ` ` ` ` ` ` ` ` ` ` ` ` ` ` $ o o o o ",
"o X o o $ _ ] ] ] ] ] ] ] ] ] ] ] ] ] ] ] ] ] ] ] ] ] ] ] ] ] ] ] ] ] ] ] ] ] ] ] ] ] ] ] ] ] ] ] ] ] ] ] ] ] ] ] ' _ O o o o o ",
"o X o o o 6 ( _ ) _ _ _ _ _ ) _ _ _ _ _ _ _ _ _ ) ) _ _ _ _ ) ) _ _ _ _ _ _ _ _ _ _ _ _ _ _ _ _ _ _ ) ) _ _ _ _ _ ( 9 o . o X o ",
"o X X X X o 4 5 5 5 5 5 5 5 5 5 5 6 5 5 5 5 5 5 5 5 5 5 5 5 5 5 5 5 5 5 5 5 5 5 5 5 5 5 5 5 5 5 5 5 5 5 5 5 5 5 5 5 o o X o o   ",
"X X o o X X . . o . o + o o . X . o   o X o o X o o o O o o o o o   o o o o o o . o o o X X o o o o X o o o o o X X X X o o X X ",
"X X   X X   % o.*.*.*.*.*.*.*.*.*.*.*.*.*.*.*.*.*.*.*.=.*.*.*.*.*.*.*.*.*.*.*.*.*.*.*.*.*.*.*.*.*.*.*.*.*.*.*.*.&.% X X     X X ",
"  X X X X X $ ..=.=.=.=.=.=.=.=.=.=.=.=.=.=.=.=.=.=.=.=.=.=.=.=.=.=.=.=.=.=.=.=.=.=.=.=.=.=.=.=.=.=.=.=.=.=.=.=...% X X X X X X ",
"X X       X o 9 ..o.o.&.&.&.&.&.&.&.&.&.&.&.&.&.o.o.o.&.&.&.&.&.&.&.&.&.&.&.&.o.o.o.o.o.&.&.&.&.o.o.&.&.&.o.&...r o   X     X   ",
"      X   X . . % 5 5 4 5 6 4 5 5 5 5 5 5 5 5 5 5 5 5 5 5 5 5 6 5 5 5 5 5 5 5 5 9 5 5 5 w 5 5 5 5 4 9 5 5 5 5 4 O   X   X     X ",
"  X X   X     .   . .   . o .   o o X   o     o     o X . o   .   X o   o   o o     o   . . . . . X   . .             X   X     ",
"                    @.%.%.%.%.%.%.%.%.%.%.%.%.%.%.%.%.%.%.%.%.%.%.%.%.%.%.%.%.%.%.%.%.%.%.%.%.%.%.%.%.%.$.#.$                   ",
"                    $ O.$.%.%.%.%.%.%.%.%.%.%.%.%.%.%.%.%.%.%.%.%.%.%.%.%.%.%.%.%.%.%.%.%.%.%.%.%.%.%.$.O.% . .                 ",
"                      % X.O.O.O.O.O.O.O.O.O.O.O.O.O.O.O.O.O.O.O.O.O.O.O.O.O.O.O.O.O.O.O.O.O.O.O.+.+.+.X.w                       ",
"                        4 w b n n n n b n n n n n n n n n n n n n n n n n n n n n n n n n n n n n n w 4                         ",
"                          , m.C.C.C.C.C.C.C.C.C.C.C.C.C.C.C.C.C.C.C.C.C.C.C.C.C.C.C.C.C.C.C.C.C.C.M.,                           ",
"                            , Z.F.F.F.F.F.F.F.F.F.F.F.F.F.F.F.F.F.F.F.F.F.F.F.F.F.F.F.F.F.F.F.F.D.,                             ",
"                              O , V.Z.C.C.C.Z.C.C.C.C.C.C.C.C.C.C.C.C.C.Z.C.C.C.C.C.C.C.C.Z.V.0 #                               ",
"                              .   0 q f J K K U K K K K K K K K K K K J K K K K K K J J q q 0                                   ",
"                                      $ b.N.B.V.S.S.S.S.S.S.S.S.S.S.S.S.S.S.S.S.B.B.B.n.>                                       ",
"                                        2 2 c A.G.G.G.J.J.J.J.J.J.J.J.J.J.G.G.G.C.m g 2 o                                       ",
"                                              . O O O H.J.J.J.J.J.J.J.J.H.+ O O .                                               ",
"                                                      O O O O O $ O O @ +                                                       ",
"                                    .                                                                                           ",
"                                                                            .                                                   ",
"                                    .   .     .   .       .   . .     .   .                                                     ",
"                                .       .     .       .   .       .   .       .                                                 "
};
