/* XPM */
static char *ba462656684b4b70b8fa6391665f3374llIQ6fCxWOaTilba[] = {
/* columns rows colors chars-per-pixel */
"64 64 3 1 ",
"  c #1F041D",
". c #8E0284",
"X c #98028E",
/* pixels */
"X...............................X...............................",
".                               .                               ",
".                               .                               ",
".                               .                               ",
".                               .                               ",
".                               .                               ",
".                               .                               ",
".                               .                               ",
".                               .                               ",
".                               .                               ",
".                               .                               ",
".                               .                               ",
".                               .                               ",
".                               .                               ",
".                               .                               ",
".                               .                               ",
".                               .                               ",
".                               .                               ",
".                               .                               ",
".                               .                               ",
".                               .                               ",
".                               .                               ",
".                               .                               ",
".                               .                               ",
".                               .                               ",
".                               .                               ",
".                               .                               ",
".                               .                               ",
".                               .                               ",
".                               .                               ",
".                               .                               ",
".                               .                               ",
"X...............................X...............................",
".                               .                               ",
".                               .                               ",
".                               .                               ",
".                               .                               ",
".                               .                               ",
".                               .                               ",
".                               .                               ",
".                               .                               ",
".                               .                               ",
".                               .                               ",
".                               .                               ",
".                               .                               ",
".                               .                               ",
".                               .                               ",
".                               .                               ",
".                               .                               ",
".                               .                               ",
".                               .                               ",
".                               .                               ",
".                               .                               ",
".                               .                               ",
".                               .                               ",
".                               .                               ",
".                               .                               ",
".                               .                               ",
".                               .                               ",
".                               .                               ",
".                               .                               ",
".                               .                               ",
".                               .                               ",
".                               .                               "
};
