/* XPM */
static char *_df154a9b0844bd8f930b1b4530b91a9kZDz7STVjkjK2tUE[] = {
/* columns rows colors chars-per-pixel */
"64 64 150 2 ",
"   c #020203",
".  c #080107",
"X  c #0A010A",
"o  c #010D0D",
"O  c #170315",
"+  c #180317",
"@  c #1F041D",
"#  c #021414",
"$  c #031E1F",
"%  c #341A08",
"&  c #21061E",
"*  c #23091D",
"=  c #36231C",
"-  c #1E0921",
";  c #1C1227",
":  c #1B162B",
">  c #1A1B2F",
",  c #1A1D30",
"<  c #240622",
"1  c #260E25",
"2  c #2E0A2B",
"3  c #241323",
"4  c #241C23",
"5  c #2A1428",
"6  c #360E33",
"7  c #380F35",
"8  c #3E113B",
"9  c #301F3F",
"0  c #032323",
"q  c #042C2C",
"w  c #0B2D2B",
"e  c #172636",
"r  c #182436",
"t  c #053535",
"y  c #0B3635",
"u  c #063C3C",
"i  c #2F2620",
"p  c #2A232A",
"a  c #2E2D2E",
"s  c #36272E",
"d  c #3A2338",
"f  c #393635",
"g  c #3C393C",
"h  c #42211B",
"j  c #76341C",
"k  c #1C4232",
"l  c #395C39",
"z  c #644F30",
"x  c #133E4A",
"c  c #4D1249",
"v  c #50164C",
"b  c #5D1757",
"n  c #453E45",
"m  c #7A0D72",
"M  c #7C1275",
"N  c #7B2375",
"B  c #054242",
"V  c #064848",
"C  c #0C4A4E",
"Z  c #0E4A50",
"A  c #0F4F58",
"S  c #104B55",
"D  c #085555",
"F  c #0D545A",
"G  c #095D5E",
"H  c #0C5E63",
"J  c #076767",
"K  c #086464",
"L  c #0A676A",
"P  c #076A6A",
"I  c #096B6D",
"U  c #16796F",
"Y  c #077575",
"T  c #097173",
"R  c #0E7379",
"E  c #12737A",
"W  c #4C444C",
"Q  c #524C52",
"!  c #555054",
"~  c #5D5D5D",
"^  c #795845",
"/  c #46754B",
"(  c #706659",
")  c #765562",
"_  c gray38",
"`  c #CC2F12",
"'  c #D33012",
"]  c #FF340F",
"[  c #F43210",
"{  c #815D1B",
"}  c #CB540D",
"|  c #DC5B12",
" . c #FF430F",
".. c #FF4B0F",
"X. c #FF580F",
"o. c #FD660F",
"O. c #FF680F",
"+. c #FF750F",
"@. c #E6741C",
"#. c #F87612",
"$. c #84097C",
"%. c #88197C",
"&. c #8A6B4C",
"*. c #816E50",
"=. c #BAA125",
"-. c #AAA332",
";. c #DF9D12",
":. c #FF8B0F",
">. c #FF950F",
",. c #FF9D0F",
"<. c #E79116",
"1. c #FFAC0F",
"2. c #F7B510",
"3. c #D38E26",
"4. c #2D6E87",
"5. c #227082",
"6. c #38748F",
"7. c #4B6896",
"8. c #55699C",
"9. c #55739D",
"0. c #7968AE",
"q. c #8E0284",
"w. c #920388",
"e. c #98028E",
"r. c #A20898",
"t. c #94298C",
"y. c #AF2FA4",
"u. c #BF34B3",
"i. c #CB39BF",
"p. c #B444BA",
"a. c #CD39C1",
"s. c #D63CCA",
"d. c #DA3CCD",
"f. c #E03FD3",
"g. c #BA5FCE",
"h. c #C854CE",
"j. c #D44DD9",
"k. c #C258D1",
"l. c #C95CD6",
"z. c #FA46EB",
"x. c #F649E8",
"c. c #F949EB",
"v. c #F25BEA",
"b. c #EC68EA",
"n. c #E874EA",
"m. c #31858E",
"M. c #498E9C",
"N. c #DD8DE9",
"B. c #D2A6E8",
"V. c #C8BFE7",
/* pixels */
"e.q.q.q.q.q.q.q.q.q.q.q.q.q.q.q.q.q.q.q.q.q.q.q.q.q.q.q.q.q.q.q.e.q.q.q.q.q.q.q.q.q.q.q.q.q.q.q.q.q.q.q.q.q.q.q.q.q.q.q.q.q.q.q.",
"q.@ @ @ @ @ @ @ @ @ @ @ & @ @ @ @ @ @ @ @ @ @ @ @ & @ @ @ @ @ @ q.& @ @ @ @ @ @ @ @ @ @ @ & @ @ @ @ @ @ @ @ @ @ @ @ @ @ @ @ @ @ ",
"q.@ @ @ @ @ @ @ @ @ @ @ @ @ @ @ @ @ @ @ @ @ @ @ @ @ @ @ @ @ @ @ q.@ @ @ @ @ @ @ @ @ @ @ @ @ @ @ @ @ @ @ @ @ @ @ @ @ @ @ & @ @ @ ",
"q.@ @ @ @ @ @ @ @ @ @ @ @ @ @ @ @ @ @ @ @ @ @ @ @ @ @ @ @ @ @ @ q.@ @ @ @ @ @ @ @ @ @ @ @ @ @ @ @ @ @ @ @ @ @ @ @ @ @ @ @ @ @ @ ",
"q.@ @ @ @ @ @ @ @ @ @ @ @ @ @ @ @ @ @ @ @ & @ @ @ @ @ @ @ @ @ @ q.@ & @ @ @ @ @ @ @ @ @ @ @ @ @ @ @ @ @ @ @ @ @ @ @ @ @ @ @ @ @ ",
"q.@ @ @ @ @ @ @ @ @ @ @ @ @ @ @ @ @ @ @ @ @ @ @ @ @ @ @ @ @ @ @ q.@ @ @ @ @ @ @ @ @ @ @ @ @ @ @ @ @ @ @ @ @ @ @ @ @ @ @ @ @ @ @ ",
"q.@ & @ @ @ @ @ @ @ @ @ @ @ @ @ @ @ @ @ @ @ @ @ @ @ @ @ @ @ @ @ q.@ @ @ @ @ @ @ @ @ @ @ @ @ @ @ @ @ @ @ @ @ & @ @ @ @ @ @ @ @ @ ",
"q.@ @ @ @ @ @ @ @ @ @ @ @ @ @ @ @ @ @ @ @ @ @ @ @ @ @ @ @ @ @ @ q.@ @ @ @ @ @ @ @ @ @ @ @ @ @ @ @ @ @ @ @ @ @ @ @ @ @ @ @ @ @ @ ",
"q.@ @ @ @ @ @ @ @ @ @ @ @ @ @ @ @ @ @ @ @ @ @ @ @ @ @ @ @ @ @ @ q.@ @ @ @ @ @ @ @ @ @ @ @ @ @ @ @ @ @ & @ @ @ @ @ @ @ @ @ @ @ @ ",
"q.@ @ @ @ @ @ & @ @ @ @ & @ @ @ @ @ @ @ @ @ @ @ @ @ @ @ @ @ @ @ q.@ @ @ @ @ @ @ @ @ @ @ @ @ @ @ @ @ @ @ @ @ @ @ @ @ @ @ @ @ @ @ ",
"q.@ @ @ @ @ @ @ @ @ @ @ @ @ @ @ @ @ @ @ @ @ @ @ @ @ @ @ @ @ @ @ q.@ @ @ @ @ @ @ @ @ @ @ @ @ @ @ @ @ @ @ @ @ @ @ @ @ @ @ @ @ @ @ ",
"q.@ @ @ @ @ @ @ @ @ @ @ @ @ @ @ @ @ @ @ @ @ @ @ @ @ @ @ @ @ @ @ q.@ @ @ @ @ @ @ @ @ @ @ @ @ @ @ @ @ @ @ @ @ @ @ @ @ @ @ @ @ @ @ ",
"q.@ @ @ @ @ @ @ @ @ @ @ @ @ @ @ @ @ @ @ @ @ & @ @ @ @ @ @ @ @ @ q.@ @ @ @ @ @ @ @ @ @ @ @ @ @ & @ @ @ @ @ @ @ @ @ @ @ @ @ @ @ @ ",
"q.@ @ @ @ @ @ @ @ @ @ @ @ @ @ @ @ @ @ @ @ @ @ @ @ @ @ @ @ @ @ @ q.@ @ @ @ @ @ & @ @ @ @ @ @ @ @ @ @ @ @ @ @ @ @ @ @ @ @ & @ @ @ ",
"q.@ @ @ @ @ @ @ @ @ @ @ @ @ @ @ @ @ @ @ @ @ @ @ @ @ @ @ @ @ @ @ q.@ @ @ @ @ @ @ @ @ @ @ @ @ @ @ @ @ @ @ @ @ @ @ @ @ @ @ @ @ @ @ ",
"q.@ @ @ @ @ @ @ @ @ @ @ @ @ @ @ @ @ @ @ @ @ @ @ @ @ @ @ @ @ @ @ q.@ @ @ @ @ @ @ @ @ @ @ @ @ @ @ @ @ @ @ @ @ @ @ @ @ @ @ @ @ @ @ ",
"q.@ @ @ @ @ @ @ @ @ @ @ @ @ @ @ @ @ @ @ @ @ @ @ @ @ @ @ @ @ @ @ q.@ @ @ @ @ @ @ @ @ @ @ @ @ @ @ @ @ @ @ @ @ @ @ @ @ @ @ @ @ @ @ ",
"q.@ @ @ @ @ @ @ @ @ @ @ @ @ @ @ @ @ @ @ @ @ @ @ @ @ @ @ @ @ @ @ q.@ @ @ @ @ @ @ @ @ @ @ @ @ @ @ @ @ @ @ @ @ @ @ @ @ @ @ @ @ @ @ ",
"q.@ @ @ @ @ @ @ @ @ @ @ @ @ @ @ @ @ @ @ @ @ @ @ @ @ @ @ @ @ @ @ q.@ @ @ @ @ @ @ @ @ @ @ @ @ @ @ @ @ @ @ @ @ @ @ @ @ @ @ @ @ @ @ ",
"q.@ @ & @ @ @ @ @ @ @ @ @ @ & @ @ @ @ @ @ @ @ @ @ @ @ @ @ @ @ @ q.@ @ @ @ @ @ @ @ @ @ @ @ @ @ @ @ @ @ @ @ @ @ @ @ @ @ @ @ @ @ @ ",
"q.@ @ @ @ @ @ @ - @ @ @ @ @ @ @ @ @ @ @ @ @ @ @ - - @ - @ - @ - q.@ @ @ @ @ @ @ @ @ @ @ @ @ @ @ @ @ @ @ @ @ @ @ @ @ @ @ @ @ @ @ ",
"q.@ @ @ @ @ @ @ - - - - @ - - - - G G G F G G H I T I T T I T I R R E T ; < @ @ @ @ @ @ @ @ @ @ @ @ @ @ @ @ @ @ @ @ @ @ @ @ @ @ ",
"q.& @ @ @ @ , Y Y Y Y Y Y Y Y Y D @ @ @ @ @ @ > H , @ @ @ @ @ @ z.z.z.N 7 6 @ @ @ @ @ @ @ @ @ @ @ @ @ @ @ @ & @ @ @ @ @ @ @ @ @ ",
"m p @ @ @ @ e J J J H H H H K I C @ @ @ @ @ @ : S r - @ @ @ @ @ a.d.z.t.8 6 < @ @ @ @ @ @ @ @ @ @ @ @ @ @ @ @ @ @ @ @ @ @ & @ @ ",
"d n @ @ @ - t B B V , , , , > H q & @ @ @ @ @ - ; A - @ @ @ @ @ c M z.f.v 7 2 @ @ @ @ @ @ @ @ @ @ @ @ @ @ @ @ @ @ @ @ @ @ @ @ @ ",
"M Q @ @ @ @ t t t t C Z Z Z Z q $ & @ @ @ @ @ @ @ : H @ @ @ @ @ @ 2 c u.s.i.7 2 < @ @ @ @ @ @ @ @ @ @ @ @ & @ @ @ @ @ @ @ @ @ @ ",
"q.4 @ @ @ @ t t t t G G G G K 0 $ @ @ @ & @ & & @ @ T @ - @ @ + @ @ @ y.x.x.7 6 < & @ @ @ @ @ @ @ @ @ @ @ @ @ @ @ @ @ @ @ @ @ @ ",
"q.3 a 3 @ @ u t t t u x B u B q w h h h h h h = h h h I D ; ; : : ; ; ; p.j.p.9 9 , : : : : - @ @ @ @ @ @ @ @ @ @ @ @ @ @ @ @ @ ",
"q.5 W a @ - t t t D G Y Y Y Y Y U -.-.-.-.-.-.-.-.-.-.G G G G G G G G G I Y Y Y Y Y Y Y Y Y r @ @ @ @ @ @ @ @ @ @ @ @ @ @ @ @ @ ",
"q.& @ @ @ @ t u t D H Y Y Y Y Y T T Y Y Y Y Y Y Y Y Y G G K H H G G G K T Y Y Y Y Y Y Y Y T r - @ @ @ @ @ @ @ @ @ @ @ @ @ @ @ @ ",
"q.@ 4 g p @ t t t k B V V V V V B u t B V V V V V V V H / =.l k B B B B K K Y Y Y Y Y Y Y Y H F H x @ @ @ @ @ @ @ @ @ @ @ @ @ @ ",
"q.f ~ ~ 5 @ t t u t o       o q t q $ q t u t t t t t 0 w k y o         q u B K T Y Y Y Y Y Y Y T T L L L K @ @ @ @ @ @ & @ @ @ ",
"$.g _ _ a q.t t t t           q t q $ q t t u t t t t 0 q t t           q q k H T Y Y R E 5.E Y Y Y Y Y Y Y r.r.w.q.q.q.q.q.q.q.",
"g ( _ ! 3 @ t q t   . @ & & X   t t 0 $ t t t t t t t u t t o . @ @ @ O     t x C J T E l.b.0.7.Y Y Y Y Y R k.h.N b & & & & @ & ",
"( 3._ s @ @ $ $ $   @ @ & @ &   u t t q t t t t t t t t t t # + @ @ @ @     t t t D K Y M.V.b.z.Y Y Y Y Y Y m.B.b.z.< & @ @ @ @ ",
"( 3._ Q 1 @ $ $ 0   @ @ @ @ &   t t t 0 t t t t u t t t t t o @ @ @ @ @     t t t D G Y 9.b.N.c.Y Y Y Y Y Y 6.n.N.v.< * @ @ @ @ ",
"<.#.@.&.3 @ t t t o @ @ @ @ @   0 0 0 0 $ 0 0 0 0 0 0 0 0 0 o + @ @ @ @     t t t u u K E 4.g.x.k.Y Y Y Y Y E 8.l.x.d.@ @ @ @ @ ",
">.o.] X.1.2.t t t o @ @ @ @ @   t t t 0 t t t t t t t t t t o @ @ @ @ @     t t t t t u J Y Y Y Y Y Y Y Y Y Y Y Y Y Y @ @ @ @ @ ",
";.+... .] o.i t q o O @ @ @ +   t t t q t t t t t t t t t t o O @ @ @ @     t t t t t u G K J J J P J J P P J J J J K @ @ @ @ @ ",
") ;.1.:.X.] ' = = %   O + O .   t q t 0 q t t q t q t t t q #   O O + .     t t t q t t t t t t t t t t t t t t t t t @ @ @ @ @ ",
"%.{ ,.>.:.o.[ ` ` }     . .   # 0 0 0 $ 0 0 0 0 0 0 0 0 0 0 $   .   .   # # 0 0 0 0 0 0 t t t t t t t t t t t t t t t @ @ @ @ @ ",
"q.s *.z <.>.O.| j ^           $ $ $ $ 0 $ $ $ $ $ $ $ $ $ $ $           # $ 0 0 $ $ $ 0 0 0 q 0 0 0 q 0 q 0 0 0 0 0 0 @ @ @ @ @ ",
"q.& & & * * * * @ * @ @ @ @ @ + @ @ @ @ @ @ + @ @ @ @ @ @ @ @ @ $.+ @ @ @ @ @ @ @ @ @ @ @ @ @ @ @ @ @ @ @ @ @ @ - @ @ @ @ @ @ @ ",
"q.& & & & @ & & @ @ @ @ @ @ @ @ @ @ @ @ @ @ @ @ @ @ @ @ @ @ @ @ q.@ @ @ @ @ @ @ @ @ @ @ @ @ @ @ @ @ @ @ @ @ @ @ & @ @ @ @ @ @ @ ",
"$.@ @ @ & & & & @ @ @ @ @ @ @ @ @ @ @ @ @ @ @ @ @ @ @ @ @ @ @ @ q.& @ @ @ @ @ @ @ @ @ @ @ @ @ @ @ @ @ @ @ @ @ @ @ @ @ @ @ @ @ @ ",
"q.@ @ @ + & & + @ @ @ @ @ @ @ @ @ @ @ @ @ @ @ @ @ @ @ @ @ @ @ @ q.& @ & @ @ @ @ @ @ @ @ @ @ @ @ @ @ @ @ @ @ @ @ @ @ @ @ @ @ @ @ ",
"q.& @ @ @ @ & & @ @ @ @ @ @ @ @ @ @ @ @ @ @ @ @ @ @ @ @ @ @ @ @ q.@ @ @ @ @ @ @ @ @ @ @ @ @ @ @ @ @ @ @ @ @ @ @ @ @ @ @ @ @ @ @ ",
"q.& @ @ @ @ @ & @ @ @ @ @ @ @ @ @ @ @ @ @ @ @ @ @ @ @ @ @ @ @ @ q.& @ @ @ @ @ @ @ @ @ @ @ @ @ @ @ @ @ @ @ @ @ @ @ @ @ @ @ @ @ @ ",
"q.& & @ @ @ @ @ @ @ @ @ @ @ @ @ @ @ @ @ @ @ @ @ @ @ @ @ @ @ @ @ q.@ @ @ @ @ @ @ @ @ @ @ @ @ @ @ @ @ @ @ @ @ @ @ @ @ @ @ @ @ @ @ ",
"q.& @ @ @ @ @ @ @ @ @ @ @ @ @ @ @ @ @ @ @ @ @ @ @ @ @ @ @ & @ @ q.@ @ @ @ @ @ @ @ @ @ @ @ @ @ @ @ @ @ @ @ @ @ @ @ @ @ @ @ @ @ @ ",
"q.@ @ @ @ @ @ @ @ @ @ @ @ @ @ @ @ @ @ @ @ @ @ @ @ @ @ @ @ @ @ @ q.@ @ @ @ @ @ @ @ @ @ @ @ @ @ @ @ @ @ @ @ @ @ @ @ @ @ @ @ @ @ @ ",
"q.& @ @ @ @ @ @ @ @ & @ @ @ @ @ @ @ @ @ & @ @ @ @ @ @ @ @ @ @ @ q.@ @ @ @ @ @ @ @ @ @ @ @ @ @ @ @ @ @ @ @ @ @ @ @ @ @ @ @ @ @ @ ",
"q.@ @ @ @ @ @ @ @ @ @ @ @ @ @ @ @ @ @ @ @ @ @ @ @ @ @ @ @ @ @ @ q.& @ @ @ @ @ @ @ @ @ @ @ @ @ @ @ @ @ @ @ @ @ @ @ @ @ @ @ @ @ @ ",
"q.@ @ @ @ @ @ @ @ @ @ @ @ @ @ @ @ @ @ @ @ @ @ @ @ @ @ @ @ @ @ @ q.@ @ @ @ @ @ @ @ @ @ & @ @ @ @ @ @ @ @ @ @ @ @ @ @ @ @ @ @ @ @ ",
"q.@ @ @ @ @ @ @ @ @ @ @ @ @ @ @ @ @ @ @ @ @ @ @ @ @ @ @ @ @ @ @ q.@ @ @ @ @ @ @ @ @ @ @ @ @ @ @ @ @ @ @ @ @ @ @ @ @ @ @ @ @ @ @ ",
"q.@ @ @ @ @ @ @ @ @ @ @ @ @ @ @ @ @ @ @ @ @ @ @ @ @ @ @ @ @ @ @ q.@ @ @ @ @ @ @ @ @ @ @ @ @ @ @ @ @ @ @ @ @ @ @ @ @ @ @ @ @ @ @ ",
"$.@ @ @ @ @ @ @ @ @ @ @ @ @ @ @ @ @ @ @ @ & @ @ @ @ @ @ @ @ @ @ q.@ @ @ @ @ @ @ @ @ @ @ @ @ @ @ @ @ @ @ @ @ @ @ @ @ @ @ @ @ @ @ ",
"q.@ @ @ @ @ @ @ @ @ @ & @ @ @ @ @ @ @ @ @ @ @ @ @ @ @ @ @ @ @ @ q.@ @ @ @ @ @ @ @ @ @ @ & @ @ @ @ @ @ @ @ @ @ @ @ @ @ @ @ @ @ @ ",
"q.& @ @ @ @ @ @ @ @ @ @ @ @ @ @ @ @ @ @ @ @ @ @ @ @ @ @ @ @ @ @ q.@ @ @ @ @ @ @ @ @ @ @ @ @ @ @ @ @ @ @ @ @ @ @ @ @ @ @ @ @ @ @ ",
"q.& @ @ @ @ @ & @ @ @ @ @ @ @ @ @ @ @ @ @ @ @ @ @ & @ @ @ @ @ @ q.@ @ @ @ @ @ @ @ @ @ @ @ @ @ @ @ @ @ @ @ @ @ @ @ @ @ @ @ @ @ @ ",
"q.& & @ @ @ @ @ @ @ @ @ @ @ @ @ @ @ @ @ @ @ @ @ @ @ @ @ @ @ @ @ q.@ @ @ @ @ @ @ @ @ @ @ @ @ @ @ @ @ @ @ @ @ @ @ @ @ @ @ @ @ @ @ ",
"q.& @ @ @ @ @ @ @ @ @ @ @ @ @ @ @ @ @ @ @ @ @ @ @ @ @ @ @ @ @ @ q.@ @ @ @ @ @ @ @ @ @ @ @ @ @ @ @ @ @ @ @ @ @ @ @ @ @ @ @ @ @ @ ",
"q.@ @ @ @ @ @ @ @ @ @ @ @ @ @ @ @ @ @ @ @ @ @ @ @ @ @ @ @ @ @ @ q.@ @ @ @ @ @ @ @ @ @ @ @ @ @ @ @ @ @ @ @ @ @ @ @ @ @ @ @ @ @ @ ",
"q.@ @ @ @ @ @ @ @ @ @ @ @ @ @ @ @ @ @ @ @ @ @ @ @ @ @ @ @ @ @ @ q.@ @ @ & @ @ @ @ @ @ @ @ @ @ @ @ @ @ @ @ @ @ @ @ @ @ @ @ @ @ @ "
};
